<svg width="24" height="25" viewBox="0 0 24 25" fill="none" xmlns="http://www.w3.org/2000/svg">
<path d="M13.0212 24.2099C19.0612 24.2099 23.9999 19.2712 23.9999 13.2312H22.468C22.468 18.4252 18.2152 22.678 13.0212 22.678V24.2099ZM23.9999 13.2312C23.9999 7.19112 19.0612 2.25244 13.0212 2.25244V3.78436C18.2152 3.78436 22.468 8.03717 22.468 13.2312H23.9999ZM13.0212 2.25244C6.98116 2.25244 2.04248 7.19112 2.04248 13.2312H3.5744C3.5744 8.03717 7.82721 3.78436 13.0212 3.78436V2.25244ZM2.04248 13.2312C2.04248 19.2712 6.98116 24.2099 13.0212 24.2099V22.678C7.82721 22.678 3.5744 18.4252 3.5744 13.2312H2.04248Z" fill="black"/>
<path d="M8.93612 12.4652C8.5131 12.4652 8.17017 12.8081 8.17017 13.2312C8.17017 13.6542 8.5131 13.9971 8.93612 13.9971V12.4652ZM17.1063 13.9971C17.5294 13.9971 17.8723 13.6542 17.8723 13.2312C17.8723 12.8081 17.5294 12.4652 17.1063 12.4652V13.9971ZM8.93612 13.9971H17.1063V12.4652H8.93612V13.9971Z" fill="black"/>
<path d="M12.2554 17.3163C12.2554 17.7393 12.5983 18.0823 13.0213 18.0823C13.4444 18.0823 13.7873 17.7393 13.7873 17.3163H12.2554ZM13.7873 9.14608C13.7873 8.72306 13.4444 8.38013 13.0213 8.38013C12.5983 8.38013 12.2554 8.72306 12.2554 9.14608H13.7873ZM13.7873 17.3163V9.14608H12.2554V17.3163H13.7873Z" fill="black"/>
</svg>
