<svg width="24" height="27" viewBox="0 0 24 27" fill="none" xmlns="http://www.w3.org/2000/svg">
<g clip-path="url(#clip0_8_257)">
<path d="M20.7814 18.2522C20.0679 17.7675 18.5838 16.7584 18.5838 14.1334C18.5838 11.9179 19.894 10.7998 20.5977 10.1992L20.6124 10.1865C20.8949 9.94548 20.9622 9.49663 20.7662 9.16327C19.1939 6.49186 16.4936 6.41471 15.9687 6.42579H15.9656C15.6055 6.4263 15.2619 6.4732 14.9361 6.54734C15.0564 6.43841 15.1732 6.32241 15.2855 6.19936C16.4104 4.9678 17.0284 3.15072 16.9808 1.2126C16.9706 0.803592 16.6746 0.477295 16.3128 0.477295C15.0962 0.477295 13.7128 1.29985 12.7025 2.6242C11.6846 3.95865 11.2091 5.55735 11.3985 7.00981C11.4141 7.13034 11.4551 7.24028 11.5139 7.33459C11.3357 7.26701 11.1472 7.18834 10.9609 7.11068C10.2532 6.81564 9.45055 6.48127 8.69918 6.48127C8.68403 6.48127 7.15632 6.49388 5.63085 7.56607C4.29656 8.50462 2.70557 10.4579 2.70557 14.4365C2.70557 16.5057 3.41995 19.4026 4.52562 21.8173C5.28948 23.4856 6.87467 26.2856 8.91042 26.2987H8.93226C10.4167 26.2987 11.6467 25.3067 12.4832 25.3067C13.912 25.3067 14.4205 26.3098 15.9656 26.3098C17.3507 26.3098 18.693 25.1191 19.9556 22.7715C20.419 21.9091 20.7795 21.0563 21.0001 20.4924C21.4213 19.4182 21.4213 19.275 21.4213 19.1701C21.4213 18.6874 21.096 18.466 20.7814 18.2522ZM13.7146 3.61268C14.2631 2.89351 14.9544 2.35994 15.609 2.12442C15.4839 3.29899 15.0453 4.35756 14.3559 5.11204C13.8728 5.64107 13.293 5.98502 12.7043 6.10354C12.7667 5.2724 13.1178 4.39489 13.7146 3.61268ZM18.7487 22.1037C17.7945 23.8406 16.8061 24.7968 15.9656 24.7968C14.8091 24.7968 14.2685 23.7937 12.4832 23.7937C11.2786 23.7937 10.1293 24.7928 8.918 24.7857C7.9732 24.7797 6.74498 23.3756 5.71285 21.1213C4.69809 18.9058 4.04253 16.2818 4.04253 14.4365C4.04253 11.8241 4.80148 9.95455 6.2971 8.87933C7.4616 8.04266 8.65283 7.99576 8.7032 7.99425C9.74692 7.99728 11.1957 9.04274 12.2515 9.04274C13.202 9.04274 14.4749 7.93877 15.9704 7.93877H15.995C16.3578 7.9307 18.0704 7.97659 19.2737 9.45426C18.4234 10.2647 17.2469 11.7222 17.2469 14.1334C17.2469 17.4084 19.0772 18.8463 19.9418 19.4459C19.7265 20.036 19.316 21.0714 18.7487 22.1037Z" fill="#1AADB6"/>
</g>
<defs>
<clipPath id="clip0_8_257">
<rect width="22.8273" height="25.8325" fill="white" transform="translate(0.649658 0.477295)"/>
</clipPath>
</defs>
</svg>
