<svg width="25" height="25" viewBox="0 0 25 25" fill="none" xmlns="http://www.w3.org/2000/svg">
<g clip-path="url(#clip0_15_721)">
<mask id="path-1-inside-1_15_721" fill="white">
<path d="M22.0477 17.2021C21.2663 16.733 19.641 15.7564 19.641 13.216C19.641 11.0719 21.0759 9.98985 21.8466 9.40856L21.8627 9.39635C22.1721 9.16306 22.2458 8.72867 22.0311 8.40606C20.3092 5.82074 17.3519 5.74607 16.777 5.7568H16.7736C16.3792 5.75729 16.0029 5.80268 15.6461 5.87443C15.7779 5.76901 15.9058 5.65675 16.0288 5.53766C17.2607 4.34579 17.9376 2.58727 17.8854 0.711608C17.8742 0.315782 17.5501 0 17.1538 0C15.8214 0 14.3064 0.796045 13.1999 2.07772C12.0851 3.36916 11.5644 4.91634 11.7718 6.32199C11.7889 6.43864 11.8338 6.54504 11.8982 6.63631C11.703 6.57091 11.4965 6.49477 11.2925 6.41961C10.5174 6.13408 9.63843 5.81049 8.81554 5.81049C8.79895 5.81049 7.12583 5.82269 5.45516 6.86033C3.99388 7.76863 2.25146 9.65894 2.25146 13.5093C2.25146 15.5119 3.03384 18.3154 4.24474 20.6523C5.0813 22.2668 6.81737 24.9766 9.04689 24.9893H9.07081C10.6966 24.9893 12.0436 24.0292 12.9598 24.0292C14.5245 24.0292 15.0814 25 16.7736 25C18.2905 25 19.7606 23.8477 21.1433 21.5757C21.6509 20.7411 22.0457 19.9158 22.2873 19.3701C22.7486 18.3305 22.7486 18.1919 22.7486 18.0904C22.7486 17.6233 22.3923 17.409 22.0477 17.2021ZM14.3083 3.03434C14.9091 2.33835 15.6661 1.82197 16.3831 1.59404C16.246 2.73076 15.7657 3.75522 15.0107 4.48538C14.4816 4.99736 13.8466 5.33023 13.2019 5.44493C13.2702 4.64058 13.6548 3.79134 14.3083 3.03434ZM19.8216 20.9295C18.7766 22.6104 17.6941 23.5358 16.7736 23.5358C15.507 23.5358 14.915 22.565 12.9598 22.565C11.6405 22.565 10.3818 23.5319 9.05518 23.525C8.02046 23.5192 6.67534 22.1604 5.54497 19.9787C4.43363 17.8346 3.71567 15.2952 3.71567 13.5093C3.71567 10.9811 4.54686 9.17184 6.18483 8.13127C7.46016 7.32156 8.76477 7.27617 8.81993 7.27471C9.96299 7.27764 11.5497 8.28941 12.706 8.28941C13.747 8.28941 15.141 7.22102 16.7789 7.22102H16.8058C17.2031 7.21321 19.0787 7.25762 20.3965 8.68767C19.4653 9.472 18.1768 10.8825 18.1768 13.216C18.1768 16.3855 20.1813 17.777 21.1282 18.3573C20.8924 18.9284 20.4429 19.9304 19.8216 20.9295Z"/>
</mask>
<path d="M22.0477 17.2021C21.2663 16.733 19.641 15.7564 19.641 13.216C19.641 11.0719 21.0759 9.98985 21.8466 9.40856L21.8627 9.39635C22.1721 9.16306 22.2458 8.72867 22.0311 8.40606C20.3092 5.82074 17.3519 5.74607 16.777 5.7568H16.7736C16.3792 5.75729 16.0029 5.80268 15.6461 5.87443C15.7779 5.76901 15.9058 5.65675 16.0288 5.53766C17.2607 4.34579 17.9376 2.58727 17.8854 0.711608C17.8742 0.315782 17.5501 0 17.1538 0C15.8214 0 14.3064 0.796045 13.1999 2.07772C12.0851 3.36916 11.5644 4.91634 11.7718 6.32199C11.7889 6.43864 11.8338 6.54504 11.8982 6.63631C11.703 6.57091 11.4965 6.49477 11.2925 6.41961C10.5174 6.13408 9.63843 5.81049 8.81554 5.81049C8.79895 5.81049 7.12583 5.82269 5.45516 6.86033C3.99388 7.76863 2.25146 9.65894 2.25146 13.5093C2.25146 15.5119 3.03384 18.3154 4.24474 20.6523C5.0813 22.2668 6.81737 24.9766 9.04689 24.9893H9.07081C10.6966 24.9893 12.0436 24.0292 12.9598 24.0292C14.5245 24.0292 15.0814 25 16.7736 25C18.2905 25 19.7606 23.8477 21.1433 21.5757C21.6509 20.7411 22.0457 19.9158 22.2873 19.3701C22.7486 18.3305 22.7486 18.1919 22.7486 18.0904C22.7486 17.6233 22.3923 17.409 22.0477 17.2021ZM14.3083 3.03434C14.9091 2.33835 15.6661 1.82197 16.3831 1.59404C16.246 2.73076 15.7657 3.75522 15.0107 4.48538C14.4816 4.99736 13.8466 5.33023 13.2019 5.44493C13.2702 4.64058 13.6548 3.79134 14.3083 3.03434ZM19.8216 20.9295C18.7766 22.6104 17.6941 23.5358 16.7736 23.5358C15.507 23.5358 14.915 22.565 12.9598 22.565C11.6405 22.565 10.3818 23.5319 9.05518 23.525C8.02046 23.5192 6.67534 22.1604 5.54497 19.9787C4.43363 17.8346 3.71567 15.2952 3.71567 13.5093C3.71567 10.9811 4.54686 9.17184 6.18483 8.13127C7.46016 7.32156 8.76477 7.27617 8.81993 7.27471C9.96299 7.27764 11.5497 8.28941 12.706 8.28941C13.747 8.28941 15.141 7.22102 16.7789 7.22102H16.8058C17.2031 7.21321 19.0787 7.25762 20.3965 8.68767C19.4653 9.472 18.1768 10.8825 18.1768 13.216C18.1768 16.3855 20.1813 17.777 21.1282 18.3573C20.8924 18.9284 20.4429 19.9304 19.8216 20.9295Z" fill="#1AADB6"/>
<path d="M22.0477 17.2021L23.0772 15.4874L23.0771 15.4874L22.0477 17.2021ZM21.8466 9.40856L23.0509 11.0053L23.0551 11.0021L21.8466 9.40856ZM21.8627 9.39635L20.6586 7.79942L20.6541 7.80278L21.8627 9.39635ZM22.0311 8.40606L23.6961 7.29799L23.6957 7.29739L22.0311 8.40606ZM16.777 5.7568V7.7568H16.7956L16.8143 7.75645L16.777 5.7568ZM16.7736 5.7568L16.7736 3.7568L16.7711 3.7568L16.7736 5.7568ZM15.6461 5.87443L14.3968 4.31258L16.0404 7.83518L15.6461 5.87443ZM16.0288 5.53766L14.6381 4.10029L14.6376 4.10079L16.0288 5.53766ZM17.8854 0.711608L19.8846 0.655969L19.8846 0.65504L17.8854 0.711608ZM13.1999 2.07772L11.686 0.770752L11.6859 0.770879L13.1999 2.07772ZM11.7718 6.32199L13.7507 6.03207L13.7504 6.03001L11.7718 6.32199ZM11.8982 6.63631L11.2629 8.53273L17.054 10.4727L13.5322 5.48301L11.8982 6.63631ZM11.2925 6.41961L11.9839 4.54292L11.9839 4.54291L11.2925 6.41961ZM5.45516 6.86033L4.39995 5.16136L4.39935 5.16173L5.45516 6.86033ZM4.24474 20.6523L6.02052 19.7322L6.02051 19.7322L4.24474 20.6523ZM9.04689 24.9893L9.03549 26.9893H9.04689V24.9893ZM21.1433 21.5757L22.8517 22.6155L22.852 22.615L21.1433 21.5757ZM22.2873 19.3701L20.4592 18.5589L20.4585 18.5604L22.2873 19.3701ZM14.3083 3.03434L15.8222 4.34127L15.8222 4.34123L14.3083 3.03434ZM16.3831 1.59404L18.3687 1.83352L18.7411 -1.25418L15.7772 -0.31197L16.3831 1.59404ZM15.0107 4.48538L13.6203 3.04771L13.6199 3.0481L15.0107 4.48538ZM13.2019 5.44493L11.209 5.27571L10.9887 7.87008L13.5522 7.41401L13.2019 5.44493ZM19.8216 20.9295L18.1232 19.8733L18.123 19.8735L19.8216 20.9295ZM9.05518 23.525L9.04397 25.525L9.04478 25.525L9.05518 23.525ZM5.54497 19.9787L7.32078 19.0586L7.32062 19.0583L5.54497 19.9787ZM6.18483 8.13127L5.11284 6.44283L5.11239 6.44312L6.18483 8.13127ZM8.81993 7.27471L8.82506 5.27472L8.79603 5.27464L8.76702 5.27541L8.81993 7.27471ZM16.8058 7.22102V9.22102H16.8254L16.8451 9.22063L16.8058 7.22102ZM20.3965 8.68767L21.6849 10.2174L23.2843 8.87018L21.8672 7.33236L20.3965 8.68767ZM21.1282 18.3573L22.9768 19.1206L23.6279 17.5436L22.1732 16.6521L21.1282 18.3573ZM23.0771 15.4874C22.6916 15.256 22.3655 15.0471 22.1035 14.7246C21.88 14.4494 21.641 14.0124 21.641 13.216H17.641C17.641 14.96 18.2146 16.2815 18.999 17.2469C19.745 18.1651 20.6223 18.6791 21.0183 18.9168L23.0771 15.4874ZM21.641 13.216C21.641 12.132 22.2856 11.5825 23.0509 11.0053L20.6422 7.81181C19.8662 8.39716 17.641 10.0118 17.641 13.216H21.641ZM23.0551 11.0021L23.0712 10.9899L20.6541 7.80278L20.638 7.81499L23.0551 11.0021ZM23.0668 10.9933C24.2229 10.1215 24.4965 8.50076 23.6961 7.29799L20.3661 9.51413C19.995 8.95658 20.1212 8.2046 20.6586 7.79943L23.0668 10.9933ZM23.6957 7.29739C21.3641 3.79664 17.4338 3.74419 16.7396 3.75715L16.8143 7.75645C17.27 7.74795 19.2543 7.84484 20.3665 9.51473L23.6957 7.29739ZM16.777 3.7568H16.7736V7.7568H16.777V3.7568ZM16.7711 3.7568C16.2242 3.75748 15.7153 3.82047 15.2518 3.91368L16.0404 7.83518C16.2904 7.78489 16.5341 7.7571 16.7761 7.7568L16.7711 3.7568ZM16.8953 7.43628C17.0751 7.29251 17.2505 7.13864 17.42 6.97453L14.6376 4.10079C14.5611 4.17486 14.4807 4.24551 14.3968 4.31258L16.8953 7.43628ZM17.4194 6.97503C19.0951 5.35382 19.9508 3.03385 19.8846 0.655969L15.8861 0.767247C15.9244 2.14068 15.4262 3.33776 14.6381 4.10029L17.4194 6.97503ZM19.8846 0.65504C19.8428 -0.820831 18.6347 -2 17.1538 -2V2C16.4655 2 15.9055 1.45239 15.8862 0.768176L19.8846 0.65504ZM17.1538 -2C15.0897 -2 13.0618 -0.822833 11.686 0.770752L14.7137 3.38469C15.551 2.41492 16.553 2 17.1538 2V-2ZM11.6859 0.770879C10.275 2.40537 9.48383 4.51745 9.79321 6.61397L13.7504 6.03001C13.6449 5.31523 13.8952 4.33295 14.7139 3.38456L11.6859 0.770879ZM9.79291 6.61191C9.85815 7.05721 10.0292 7.45671 10.2642 7.78961L13.5322 5.48301C13.6383 5.63337 13.7196 5.82007 13.7507 6.03207L9.79291 6.61191ZM12.5335 4.73989C12.3718 4.68572 12.1945 4.62052 11.9839 4.54292L10.6011 8.2963C10.7985 8.36902 11.0341 8.4561 11.2629 8.53273L12.5335 4.73989ZM11.9839 4.54291C11.2912 4.28775 10.0623 3.81049 8.81554 3.81049V7.81049C9.21455 7.81049 9.74365 7.98042 10.6011 8.29631L11.9839 4.54291ZM8.81554 3.81049C8.6436 3.81049 6.53186 3.83724 4.39995 5.16136L6.51038 8.5593C7.71981 7.80814 8.95429 7.81049 8.81554 7.81049V3.81049ZM4.39935 5.16173C2.39743 6.40608 0.251465 8.91456 0.251465 13.5093H4.25146C4.25146 10.4033 5.59034 9.13118 6.51098 8.55893L4.39935 5.16173ZM0.251465 13.5093C0.251465 15.9168 1.15537 19.0373 2.46898 21.5724L6.02051 19.7322C4.91232 17.5935 4.25146 15.107 4.25146 13.5093H0.251465ZM2.46897 21.5724C2.92412 22.4508 3.66422 23.7114 4.65733 24.7818C5.61297 25.8118 7.09617 26.9782 9.03549 26.9893L9.05828 22.9893C8.76809 22.9877 8.2685 22.7929 7.58959 22.0612C6.94815 21.3698 6.40193 20.4683 6.02052 19.7322L2.46897 21.5724ZM9.04689 26.9893H9.07081V22.9893H9.04689V26.9893ZM9.07081 26.9893C10.2595 26.9893 11.2847 26.6383 11.97 26.387C12.3613 26.2435 12.5765 26.157 12.8053 26.0836C13.029 26.0118 13.0469 26.0292 12.9598 26.0292V22.0292C12.4146 22.0292 11.9205 22.1666 11.5832 22.2748C11.251 22.3814 10.856 22.535 10.5928 22.6315C9.9691 22.8603 9.50785 22.9893 9.07081 22.9893V26.9893ZM12.9598 26.0292C13.2745 26.0292 13.4562 26.0977 14.0069 26.3424C14.5973 26.6047 15.4839 27 16.7736 27V23C16.371 23 16.133 22.9099 15.6308 22.6868C15.0888 22.4461 14.2097 22.0292 12.9598 22.0292V26.0292ZM16.7736 27C19.3904 27 21.3809 25.0323 22.8517 22.6155L19.4348 20.5359C18.1402 22.6631 17.1905 23 16.7736 23V27ZM22.852 22.615C23.4195 21.682 23.8534 20.773 24.116 20.1798L20.4585 18.5604C20.2379 19.0586 19.8823 19.8002 19.4345 20.5364L22.852 22.615ZM24.1154 20.1813C24.5443 19.2146 24.7486 18.6871 24.7486 18.0904H20.7486C20.7486 18.1051 20.7482 18.0652 20.751 18.0161C20.7542 17.9616 20.7602 17.9089 20.7682 17.8601C20.7829 17.7717 20.7992 17.7283 20.789 17.7599C20.7646 17.8349 20.684 18.0522 20.4592 18.5589L24.1154 20.1813ZM24.7486 18.0904C24.7486 16.3323 23.2321 15.5804 23.0772 15.4874L21.0182 18.9168C21.1137 18.9741 21.1457 18.9942 21.1667 19.0087C21.1836 19.0203 21.1433 18.9949 21.0837 18.9329C21.0191 18.8655 20.9269 18.7498 20.854 18.5826C20.7788 18.4099 20.7486 18.2379 20.7486 18.0904H24.7486ZM15.8222 4.34123C16.2217 3.87841 16.6786 3.59872 16.989 3.50005L15.7772 -0.31197C14.6535 0.045219 13.5964 0.79829 12.7943 1.72745L15.8222 4.34123ZM14.3975 1.35456C14.3087 2.09064 14.0073 2.67343 13.6203 3.04771L16.401 5.92305C17.524 4.83701 18.1833 3.37088 18.3687 1.83352L14.3975 1.35456ZM13.6199 3.0481C13.3483 3.31087 13.0668 3.43755 12.8515 3.47585L13.5522 7.41401C14.6263 7.22291 15.6148 6.68385 16.4014 5.92266L13.6199 3.0481ZM15.1947 5.61415C15.2204 5.31135 15.3857 4.84688 15.8222 4.34127L12.7943 1.72741C11.9238 2.7358 11.3199 3.96981 11.209 5.27571L15.1947 5.61415ZM18.123 19.8735C17.6671 20.6069 17.261 21.0779 16.9511 21.3429C16.6186 21.6272 16.5658 21.5358 16.7736 21.5358V25.5358C17.9018 25.5358 18.8505 24.9817 19.5506 24.3831C20.2734 23.7651 20.931 22.933 21.5201 21.9855L18.123 19.8735ZM16.7736 21.5358C16.6559 21.5358 16.6284 21.5274 15.9314 21.2202C15.2559 20.9225 14.3282 20.565 12.9598 20.565V24.565C13.5466 24.565 13.8925 24.6929 14.3184 24.8806C14.7229 25.0588 15.6246 25.5358 16.7736 25.5358V21.5358ZM12.9598 20.565C11.8737 20.565 10.8808 20.9611 10.3109 21.1738C9.5963 21.4405 9.29867 21.5262 9.06559 21.525L9.04478 25.525C10.1383 25.5307 11.1333 25.1364 11.7095 24.9214C12.4304 24.6523 12.7266 24.565 12.9598 24.565V20.565ZM9.0664 21.525C9.36053 21.5267 9.25216 21.6607 8.75735 21.1608C8.33237 20.7315 7.82339 20.0287 7.32078 19.0586L3.76917 20.8988C4.39693 22.1104 5.12569 23.1779 5.91454 23.9748C6.63357 24.7012 7.71512 25.5175 9.04397 25.525L9.0664 21.525ZM7.32062 19.0583C6.30721 17.1032 5.71567 14.8823 5.71567 13.5093H1.71567C1.71567 15.7081 2.56006 18.566 3.76933 20.8991L7.32062 19.0583ZM5.71567 13.5093C5.71567 11.4324 6.36948 10.3834 7.25728 9.81942L5.11239 6.44312C2.72425 7.96026 1.71567 10.5298 1.71567 13.5093H5.71567ZM7.25683 9.81971C8.0824 9.29555 8.95778 9.27176 8.87285 9.27401L8.76702 5.27541C8.57177 5.28058 6.83793 5.34757 5.11284 6.44283L7.25683 9.81971ZM8.81481 9.2747C8.81383 9.2747 8.84373 9.27497 8.91289 9.28743C8.98134 9.29977 9.07141 9.32095 9.18824 9.35492C9.43407 9.42642 9.7057 9.52622 10.0635 9.65871C10.6322 9.86928 11.692 10.2894 12.706 10.2894V6.28941C12.7063 6.28941 12.698 6.28941 12.6799 6.28763C12.6619 6.28586 12.6364 6.28255 12.6026 6.27656C12.5333 6.26428 12.4426 6.24322 12.3257 6.20952C12.0801 6.13874 11.8082 6.03932 11.4525 5.90761C10.8903 5.69943 9.83129 5.2773 8.82506 5.27472L8.81481 9.2747ZM12.706 10.2894C13.2835 10.2894 13.8043 10.1454 14.1795 10.0212C14.5491 9.89892 14.9592 9.73033 15.2467 9.61798C15.9187 9.3553 16.3689 9.22102 16.7789 9.22102V5.22102C15.5509 5.22102 14.4852 5.62094 13.7905 5.89245C13.3946 6.04719 13.1587 6.1457 12.9229 6.22374C12.6928 6.29988 12.649 6.28941 12.706 6.28941V10.2894ZM16.7789 9.22102H16.8058V5.22102H16.7789V9.22102ZM16.8451 9.22063C16.9225 9.21911 17.2846 9.22165 17.723 9.34285C18.1568 9.46274 18.5876 9.67609 18.9257 10.043L21.8672 7.33236C19.9368 5.23746 17.2888 5.21114 16.7665 5.22141L16.8451 9.22063ZM19.108 7.15798C17.9694 8.11701 16.1768 10.0348 16.1768 13.216H20.1768C20.1768 11.7302 20.9611 10.827 21.6849 10.2174L19.108 7.15798ZM16.1768 13.216C16.1768 17.451 18.9473 19.3664 20.0831 20.0625L22.1732 16.6521C21.4153 16.1876 20.1768 15.32 20.1768 13.216H16.1768ZM19.2795 17.594C19.0662 18.1107 18.6646 19.0027 18.1232 19.8733L21.52 21.9857C22.2211 20.8581 22.7185 19.7461 22.9768 19.1206L19.2795 17.594Z" fill="#1AADB6" mask="url(#path-1-inside-1_15_721)"/>
</g>
<defs>
<clipPath id="clip0_15_721">
<rect width="25" height="25" fill="white"/>
</clipPath>
</defs>
</svg>
