<svg width="140" height="25" viewBox="0 0 140 25" fill="none" xmlns="http://www.w3.org/2000/svg">
<g clip-path="url(#clip0_9_587)">
<path d="M20.6201 8.61217C19.5701 3.99217 15.5401 1.91217 12.0001 1.91217C12.0001 1.91217 12.0001 1.91217 11.9901 1.91217C8.4601 1.91217 4.4201 3.98217 3.3701 8.60217C2.2001 13.7622 5.3601 18.1322 8.2201 20.8822C9.2801 21.9022 10.6401 22.4122 12.0001 22.4122C13.3601 22.4122 14.7201 21.9022 15.7701 20.8822C18.6301 18.1322 21.7901 13.7722 20.6201 8.61217ZM12.0001 13.6222C10.2601 13.6222 8.8501 12.2122 8.8501 10.4722C8.8501 8.73217 10.2601 7.32217 12.0001 7.32217C13.7401 7.32217 15.1501 8.73217 15.1501 10.4722C15.1501 12.2122 13.7401 13.6222 12.0001 13.6222Z" fill="black"/>
</g>
<defs>
<clipPath id="clip0_9_587">
<rect width="24" height="24" fill="white" transform="translate(0 0.16217)"/>
</clipPath>
</defs>
</svg>
