<svg width="125" height="38" viewBox="0 0 125 38" fill="none" xmlns="http://www.w3.org/2000/svg">
<path d="M41.1819 26.5614V32.3866C41.1819 35.0546 43.2001 37.2099 45.6982 37.2099H58.4728C60.971 37.2099 63.0001 35.0429 63.0001 32.375V26.5614C63.0001 25.7808 62.411 25.1517 61.6801 25.1517H42.5019C41.771 25.1517 41.1819 25.7808 41.1819 26.5614ZM47.7273 33.307H45.5455C45.0982 33.307 44.7273 32.9109 44.7273 32.4332C44.7273 31.9556 45.0982 31.5594 45.5455 31.5594H47.7273C48.1746 31.5594 48.5455 31.9556 48.5455 32.4332C48.5455 32.9109 48.1746 33.307 47.7273 33.307ZM54.8182 33.307H50.4546C50.0073 33.307 49.6364 32.9109 49.6364 32.4332C49.6364 31.9556 50.0073 31.5594 50.4546 31.5594H54.8182C55.2655 31.5594 55.6364 31.9556 55.6364 32.4332C55.6364 32.9109 55.2655 33.307 54.8182 33.307Z" fill="black"/>
<path d="M53.7273 18.5807V21.9943C53.7273 22.7748 53.1382 23.404 52.4073 23.404H42.5019C41.7601 23.404 41.1819 22.7515 41.1819 21.971C41.1928 20.6545 41.6837 19.4545 42.5019 18.5807C43.3201 17.7069 44.4546 17.171 45.6982 17.171H52.4073C53.1382 17.171 53.7273 17.8001 53.7273 18.5807Z" fill="black"/>
<path d="M60.7853 15.54H57.5781C56.1926 15.54 55.3635 16.4254 55.3635 17.905V21.3303C55.3635 22.8099 56.1926 23.6953 57.5781 23.6953H60.7853C62.1708 23.6953 62.9999 22.8099 62.9999 21.3303V17.905C62.9999 16.4254 62.1708 15.54 60.7853 15.54ZM61.8108 20.1186C61.7017 20.2351 61.5381 20.3167 61.3635 20.3283H59.8253L59.8363 21.9477C59.8253 22.1458 59.7599 22.3089 59.629 22.4487C59.5199 22.5652 59.3563 22.6468 59.1817 22.6468C58.8217 22.6468 58.5272 22.3322 58.5272 21.9477V20.3167L56.9999 20.3283C56.6399 20.3283 56.3453 20.0021 56.3453 19.6176C56.3453 19.2332 56.6399 18.9186 56.9999 18.9186L58.5272 18.9303V17.2992C58.5272 16.9147 58.8217 16.5885 59.1817 16.5885C59.5417 16.5885 59.8363 16.9147 59.8363 17.2992L59.8253 18.9186H61.3635C61.7235 18.9186 62.0181 19.2332 62.0181 19.6176C62.0072 19.8157 61.9308 19.9788 61.8108 20.1186Z" fill="black"/>
</svg>
