<svg width="25" height="25" viewBox="0 0 25 25" fill="none" xmlns="http://www.w3.org/2000/svg">
<g clip-path="url(#clip0_23_1522)">
<path d="M22.0777 6.8879V6.5459C22.0777 4.97378 20.7987 3.69473 19.2265 3.69473H2.85117C1.279 3.69478 0 4.97378 0 6.5459V6.8879H22.0777Z" fill="#888EA2"/>
<path d="M13.0434 16.0594C13.0434 14.5805 13.519 13.1748 14.3972 12.0163H0V15.9934C0 17.5655 1.279 18.8446 2.85117 18.8446H13.6453C13.2513 17.9815 13.0434 17.0365 13.0434 16.0594V16.0594ZM11.0389 15.1953H8.57812V13.7304H11.0389V15.1953ZM3.28408 13.7304H7.11328V15.1953H3.28408V13.7304Z" fill="#888EA2"/>
<path d="M15.918 10.5514C17.0351 9.7698 18.3622 9.34871 19.7541 9.34871C20.5598 9.34871 21.3436 9.49016 22.0777 9.76052V8.35281H0V10.5514H15.918Z" fill="#888EA2"/>
<path d="M24.9996 16.0594C24.9996 13.1621 22.6509 10.8135 19.7537 10.8135C16.8565 10.8135 14.5078 13.1621 14.5078 16.0594C14.5078 18.9566 16.8564 21.3052 19.7537 21.3052C22.6509 21.3052 24.9996 18.9566 24.9996 16.0594ZM20.4608 18.8618V19.458H19.7284V19.458V19.458H18.996V18.8662C18.5532 18.7163 18.1909 18.4525 17.8371 18.1937L18.7018 17.0114C19.1771 17.359 19.4204 17.5261 19.7537 17.5261C19.9422 17.5261 20.0948 17.4364 20.152 17.292C20.2212 17.1172 20.1234 16.9562 19.8901 16.8612C19.8901 16.8612 18.8432 16.512 18.3591 16.0185C17.953 15.6046 17.8238 15.0211 17.9531 14.466C18.0833 13.9072 18.4606 13.4702 18.996 13.252V12.6606H20.4608V13.2275C20.8329 13.3308 21.1478 13.4835 21.3288 13.5818L20.6299 14.8692C20.1666 14.6177 19.7403 14.5422 19.5744 14.5989C19.4134 14.6539 19.3889 14.7589 19.3797 14.7984C19.3667 14.8544 19.3597 14.9404 19.4492 15.0402C19.5354 15.1362 20.4424 15.5045 20.4424 15.5045C21.421 15.9029 21.8815 16.9034 21.5138 17.8316C21.3227 18.3141 20.9381 18.6795 20.4608 18.8618V18.8618Z" fill="#888EA2"/>
</g>
<defs>
<clipPath id="clip0_23_1522">
<rect width="25" height="25" fill="white"/>
</clipPath>
</defs>
</svg>
