<svg width="25" height="25" viewBox="0 0 25 25" fill="none" xmlns="http://www.w3.org/2000/svg">
<g clip-path="url(#clip0_8_509)">
<path d="M4.81132 16.6678C5.06271 16.8174 5.27856 17.0121 5.45081 17.2371H8.70597V14.0806L7.16247 13.1236C6.8187 12.9105 6.7128 12.459 6.92592 12.1153C7.13908 11.7716 7.59036 11.6657 7.93427 11.8787L9.43833 12.8112L10.7494 11.9984C8.13445 8.41283 8.73498 3.33221 12.2157 0.464602C6.48221 -1.45611 0.467784 2.8135 0.440638 8.94559C0.426479 12.1976 2.15781 15.0882 4.81132 16.6678V16.6678Z" fill="#888EA2"/>
<path d="M5.90881 18.7018H12.8418V20.3618H5.90881V18.7018Z" fill="#888EA2"/>
<path d="M10.1705 14.0806V17.237H13.2898C13.4555 17.0185 13.6621 16.8312 13.9026 16.6896C14.5682 16.2978 15.1793 15.8199 15.7209 15.273C14.191 14.9285 12.8171 14.1677 11.7246 13.1163C11.6829 13.1434 11.3827 13.3291 10.1705 14.0806Z" fill="#888EA2"/>
<path d="M17.5776 0.00231934C13.7373 0.00231934 10.5958 3.1757 10.5958 7.03291C10.5958 10.6611 13.381 13.6654 16.9521 13.986C21.0848 14.3553 24.5593 11.0792 24.5593 7.03291C24.5593 3.18317 21.4274 0.00231934 17.5776 0.00231934V0.00231934ZM18.3109 10.2072V10.3603C18.3109 10.7647 17.983 11.0926 17.5786 11.0926C17.1741 11.0926 16.8462 10.7647 16.8462 10.3603V10.29C16.5088 10.2308 16.2005 10.1046 15.8111 9.84978C15.4726 9.62837 15.3777 9.1745 15.5991 8.83601C15.8205 8.49747 16.2744 8.40265 16.6129 8.62402C16.9699 8.85759 17.0855 8.8758 17.5736 8.87243C18.0447 8.86931 18.2325 8.49947 18.2691 8.28147C18.302 8.08574 18.2651 7.82551 17.9021 7.69725C17.2941 7.48228 16.6705 7.23562 16.2288 6.88917C15.223 6.10028 15.5267 4.29845 16.8463 3.81895V3.71291C16.8463 3.30845 17.1742 2.98055 17.5786 2.98055C17.9831 2.98055 18.311 3.30845 18.311 3.71291V3.75353C18.6718 3.85537 18.9624 4.03959 19.1621 4.24259C19.4457 4.53095 19.4418 4.99462 19.1534 5.27824C18.8652 5.56171 18.4018 5.55795 18.1183 5.27009C18.0774 5.2302 17.8518 5.04208 17.3634 5.18918C17.1684 5.24792 17.116 5.45015 17.1045 5.51074C17.0807 5.63719 17.1146 5.72244 17.1328 5.73669C17.4091 5.95337 17.9235 6.15125 18.3903 6.31627C20.3205 6.99853 20.0854 9.56572 18.3109 10.2072V10.2072Z" fill="#888EA2"/>
<path d="M7.08069 22.7052C7.08069 23.9705 8.11009 24.9999 9.3754 24.9999C10.6407 24.9999 11.6701 23.9705 11.6701 22.7052V21.8264H7.08069V22.7052Z" fill="#888EA2"/>
</g>
<defs>
<clipPath id="clip0_8_509">
<rect width="25" height="25" fill="white"/>
</clipPath>
</defs>
</svg>
