<svg width="50" height="53" viewBox="0 0 50 53" fill="none" xmlns="http://www.w3.org/2000/svg">
<ellipse cx="25" cy="26.665" rx="25" ry="25.8325" fill="#181A20"/>
<g clip-path="url(#clip0_8_297)">
<path d="M24.4419 39.0646C22.2889 39.0646 20.5356 37.2542 20.5356 35.0283C20.5356 34.5826 20.8856 34.221 21.3169 34.221C21.7481 34.221 22.0981 34.5826 22.0981 35.0283C22.0981 36.3641 23.1502 37.4501 24.4419 37.4501C25.7336 37.4501 26.7856 36.3641 26.7856 35.0283C26.7856 34.5826 27.1356 34.221 27.5669 34.221C27.9981 34.221 28.3481 34.5826 28.3481 35.0283C28.3481 37.2542 26.5951 39.0646 24.4419 39.0646V39.0646Z" fill="#888EA2"/>
<path d="M33.0358 35.8355H15.8482C14.8431 35.8355 14.0254 34.9906 14.0254 33.9519C14.0254 33.4008 14.2577 32.8788 14.6628 32.5203C14.689 32.4967 14.717 32.4752 14.7462 32.4557C16.2753 31.0769 17.1504 29.0932 17.1504 26.9985V23.9956C17.1504 19.841 20.4223 16.4612 24.442 16.4612C24.6087 16.4612 24.7889 16.4643 24.9557 16.4935C25.3816 16.5666 25.6692 16.9832 25.5982 17.4223C25.5275 17.8614 25.117 18.1587 24.6993 18.0853C24.616 18.0713 24.5244 18.0757 24.442 18.0757C21.2838 18.0757 18.7129 20.731 18.7129 23.9956V26.9985C18.7129 29.5991 17.6097 32.0597 15.689 33.7484C15.6733 33.7614 15.6598 33.7733 15.643 33.785C15.615 33.8217 15.5879 33.8776 15.5879 33.9519C15.5879 34.0982 15.7067 34.221 15.8482 34.221H33.0358C33.1775 34.221 33.2963 34.0982 33.2963 33.9519C33.2963 33.8765 33.2692 33.8217 33.24 33.785C33.2244 33.7733 33.2108 33.7614 33.1952 33.7484C31.2734 32.0586 30.1713 29.5991 30.1713 26.9985V25.8255C30.1713 25.3799 30.5213 25.0182 30.9525 25.0182C31.3838 25.0182 31.7338 25.3799 31.7338 25.8255V26.9985C31.7338 29.0944 32.6098 31.079 34.1411 32.459C34.1691 32.4783 34.1962 32.4989 34.2212 32.5215C34.6265 32.8788 34.8588 33.4008 34.8588 33.9519C34.8588 34.9906 34.0411 35.8355 33.0358 35.8355V35.8355Z" fill="#888EA2"/>
<path d="M31.7338 23.9956C28.8619 23.9956 26.5254 21.5815 26.5254 18.6139C26.5254 15.6464 28.8619 13.2321 31.7338 13.2321C34.6057 13.2321 36.942 15.6464 36.942 18.6139C36.942 21.5815 34.6057 23.9956 31.7338 23.9956V23.9956ZM31.7338 14.8466C29.7233 14.8466 28.0879 16.5364 28.0879 18.6139C28.0879 20.6912 29.7233 22.381 31.7338 22.381C33.7441 22.381 35.3795 20.6912 35.3795 18.6139C35.3795 16.5364 33.7441 14.8466 31.7338 14.8466V14.8466Z" fill="#888EA2"/>
</g>
<defs>
<clipPath id="clip0_8_297">
<rect width="25" height="25.8325" fill="white" transform="translate(13 13.2321)"/>
</clipPath>
</defs>
</svg>
