<svg width="50" height="53" viewBox="0 0 50 53" fill="none" xmlns="http://www.w3.org/2000/svg">
<ellipse cx="25" cy="26.665" rx="25" ry="25.8325" fill="#181A20"/>
<g clip-path="url(#clip0_8_292)">
<path d="M25.2845 39.0646H23.7155C22.4465 39.0646 21.414 37.9978 21.414 36.6865V36.1381C20.8745 35.9599 20.3503 35.7351 19.8468 35.4658L19.4706 35.8545C18.5595 36.7971 17.1001 36.7695 16.2155 35.8542L15.1065 34.7084C14.2204 33.7937 14.1949 32.2861 15.1068 31.3449L15.4827 30.9565C15.2221 30.4361 15.0046 29.8946 14.8322 29.337H14.3014C13.0325 29.337 12 28.2702 12 26.959V25.3377C12 24.0265 13.0325 22.9596 14.3015 22.9596H14.8322C15.0046 22.4021 15.2222 21.8605 15.4828 21.3402L15.1066 20.9516C14.1952 20.0108 14.2203 18.5031 15.1069 17.588L16.2159 16.4421C17.1026 15.5247 18.5617 15.5018 19.471 16.4424L19.8468 16.8308C20.3504 16.5616 20.8746 16.3367 21.4141 16.1586V15.6101C21.4141 14.2989 22.4465 13.2321 23.7155 13.2321H25.2845C26.5535 13.2321 27.5859 14.2989 27.5859 15.6101V16.1586C28.1254 16.3367 28.6496 16.5616 29.1532 16.8308L29.5293 16.4421C30.4404 15.4995 31.8999 15.5272 32.7845 16.4425L33.8934 17.5883C34.7796 18.503 34.8051 20.0105 33.8931 20.9518L33.5172 21.3402C33.7778 21.8605 33.9954 22.4021 34.1678 22.9596H34.6985C35.9675 22.9596 37 24.0265 37 25.3377V26.959C37 28.2702 35.9675 29.337 34.6985 29.337H34.1678C33.9954 29.8946 33.7778 30.4361 33.5172 30.9565L33.8934 31.3451C34.8048 32.2859 34.7797 33.7936 33.8931 34.7087L32.7841 35.8546C31.8974 36.772 30.4383 36.7949 29.529 35.8543L29.1532 35.4659C28.6496 35.7352 28.1254 35.96 27.5859 36.1382V36.6866C27.5859 37.9978 26.5535 39.0646 25.2845 39.0646V39.0646ZM20.0917 33.8764C20.7912 34.3039 21.5441 34.6269 22.3295 34.8363C22.6529 34.9225 22.8789 35.2239 22.8789 35.569V36.6865C22.8789 37.1632 23.2542 37.551 23.7155 37.551H25.2845C25.7458 37.551 26.1211 37.1632 26.1211 36.6865V35.569C26.1211 35.2239 26.3471 34.9225 26.6706 34.8363C27.4559 34.6269 28.2088 34.3039 28.9084 33.8764C29.1962 33.7005 29.5627 33.7484 29.7992 33.9927L30.5652 34.7842C30.8955 35.126 31.4258 35.118 31.748 34.7847L32.8577 33.638C33.1791 33.3063 33.1898 32.7581 32.858 32.4157L32.0917 31.6239C31.8552 31.3795 31.8089 31.0008 31.9791 30.7034C32.3928 29.9806 32.7053 29.2027 32.908 28.3911C32.9915 28.0569 33.2832 27.8234 33.6172 27.8234H34.6986C35.1599 27.8234 35.5352 27.4356 35.5352 26.9591V25.3377C35.5352 24.8611 35.1599 24.4734 34.6986 24.4734H33.6172C33.2832 24.4734 32.9915 24.2398 32.908 23.9057C32.7053 23.0941 32.3928 22.3161 31.9791 21.5933C31.8089 21.2959 31.8552 20.9172 32.0917 20.6729L32.8577 19.8813C33.1889 19.5396 33.1802 18.9916 32.858 18.6591L31.7484 17.5125C31.4268 17.1797 30.8963 17.17 30.5655 17.5122L29.7992 18.3041C29.5628 18.5484 29.1962 18.5963 28.9084 18.4204C28.2089 17.9929 27.456 17.6699 26.6706 17.4605C26.3472 17.3743 26.1212 17.0729 26.1212 16.7277V15.6101C26.1212 15.1335 25.7458 14.7457 25.2846 14.7457H23.7156C23.2543 14.7457 22.879 15.1335 22.879 15.6101V16.7276C22.879 17.0728 22.653 17.3742 22.3295 17.4604C21.5442 17.6698 20.7913 17.9928 20.0917 18.4203C19.8038 18.5961 19.4374 18.5483 19.2009 18.304L18.4349 17.5124C18.1046 17.1707 17.5742 17.1787 17.2521 17.5121L16.1424 18.6587C15.821 18.9904 15.8102 19.5385 16.1421 19.8809L16.9085 20.6728C17.1449 20.9171 17.1912 21.2958 17.021 21.5932C16.6073 22.316 16.2948 23.094 16.0921 23.9056C16.0086 24.2397 15.7169 24.4733 15.3829 24.4733H14.3015C13.8402 24.4733 13.4648 24.8611 13.4648 25.3377V26.959C13.4648 27.4356 13.8402 27.8234 14.3015 27.8234H15.3829C15.7169 27.8234 16.0085 28.0569 16.092 28.3911C16.2947 29.2027 16.6073 29.9806 17.0209 30.7034C17.1911 31.0008 17.1448 31.3795 16.9084 31.6238L16.1423 32.4154C15.8112 32.7572 15.8198 33.3051 16.142 33.6376L17.2517 34.7842C17.5733 35.117 18.1038 35.1268 18.4345 34.7846L19.2008 33.9926C19.375 33.8126 19.7375 33.6599 20.0917 33.8764V33.8764Z" fill="#888EA2"/>
<path d="M24.5 31.7689C21.5006 31.7689 19.0605 29.2475 19.0605 26.1483C19.0605 23.0491 21.5006 20.5278 24.5 20.5278C27.4994 20.5278 29.9394 23.0491 29.9394 26.1483C29.9394 29.2475 27.4994 31.7689 24.5 31.7689V31.7689ZM24.5 22.0414C22.3083 22.0414 20.5254 23.8838 20.5254 26.1483C20.5254 28.4129 22.3084 30.2553 24.5 30.2553C26.6916 30.2553 28.4746 28.4129 28.4746 26.1483C28.4746 23.8838 26.6916 22.0414 24.5 22.0414V22.0414Z" fill="#888EA2"/>
</g>
<defs>
<clipPath id="clip0_8_292">
<rect width="25" height="25.8325" fill="white" transform="translate(12 13.2321)"/>
</clipPath>
</defs>
</svg>
