<svg width="70" height="73" viewBox="0 0 70 73" fill="none" xmlns="http://www.w3.org/2000/svg">
<ellipse cx="35" cy="36.3602" rx="35" ry="36.1655" fill="#F4F4F6"/>
<path d="M37.6871 36.198C41.7793 36.198 45.108 32.7579 45.108 28.5294C45.108 24.3009 41.7793 20.8607 37.6871 20.8607C33.5949 20.8607 30.2656 24.3009 30.2656 28.5294C30.2656 32.7579 33.5949 36.198 37.6871 36.198ZM36.8082 24.0218V23.8135C36.8082 23.3116 37.2014 22.9054 37.6871 22.9054C38.1723 22.9054 38.566 23.3116 38.566 23.8135V24.023C39.6119 24.2549 40.3988 25.2176 40.3988 26.3667C40.3988 26.868 40.0051 27.2749 39.52 27.2749C39.0342 27.2749 38.641 26.868 38.641 26.3667C38.641 26.0464 38.3885 25.7855 38.0785 25.7855H37.2905C36.9805 25.7855 36.728 26.0464 36.728 26.3667C36.728 26.5502 36.8129 26.7245 36.9559 26.8335L37.6871 27.393L39.4637 28.7516C40.0473 29.1978 40.3988 29.9116 40.4035 30.6624V30.6709C40.4076 31.3114 40.1703 31.9157 39.7344 32.3716C39.411 32.71 39.0067 32.937 38.566 33.0327V33.2453C38.566 33.7471 38.1723 34.1534 37.6871 34.1534C37.2014 34.1534 36.8082 33.7471 36.8082 33.2453V33.0358C36.3793 32.9413 35.985 32.7233 35.6662 32.3976C35.225 31.9477 34.9801 31.3472 34.9766 30.7066C34.9736 30.2053 35.3645 29.796 35.8496 29.793H35.8555C36.3383 29.793 36.7315 30.1962 36.7344 30.6957C36.7356 31.0091 36.9796 31.2733 37.2998 31.2733C37.7855 31.2703 37.6046 31.2713 38.0867 31.2685C38.3987 31.2659 38.6481 31.0043 38.6457 30.683V30.6745C38.6446 30.4929 38.5596 30.3197 38.4178 30.2113L37.6871 29.6525L35.91 28.2939C35.3217 27.8434 34.9701 27.1229 34.9701 26.3667C34.9701 25.2152 35.7594 24.2519 36.8082 24.0218V24.0218Z" fill="#1AADB6"/>
<path d="M25.6625 40.5616C25.4372 40.158 24.9368 40.0176 24.5438 40.2519L20.4095 42.7179C20.018 42.952 19.8837 43.4694 20.1097 43.8744L24.3352 51.4366C24.5613 51.841 25.0617 51.9799 25.4539 51.7464L29.5882 49.2798C29.9802 49.0462 30.114 48.5288 29.8879 48.1238L25.6625 40.5616Z" fill="#1AADB6"/>
<path d="M49.3515 39.0521C48.9536 38.4812 48.1837 38.3522 47.6317 38.7633C45.9571 40.01 42.7415 42.4039 42.486 42.5946C42.3682 42.6982 42.2446 42.792 42.1157 42.8749C41.61 43.2037 41.0235 43.3793 40.4112 43.3793H36.2013C35.7161 43.3793 35.3223 42.973 35.3223 42.4711C35.3223 41.9686 35.7167 41.5629 36.2013 41.5629H40.7036C41.3651 41.5629 41.8948 40.9938 41.8673 40.309C41.8415 39.6594 41.3048 39.1557 40.6755 39.1557H37.2483C37.0163 38.902 36.762 38.6695 36.4895 38.4618C35.5526 37.748 34.3948 37.326 33.1415 37.326C30.9131 37.326 28.696 38.7766 27.7766 40.7129L31.3719 47.147H38.1161C39.4403 47.147 40.7446 46.7971 41.8925 46.1147C42.2903 45.8786 42.7163 45.5946 43.178 45.2519C45.1128 43.8158 49.0685 40.8322 49.0714 40.8303C49.6245 40.4198 49.7499 39.6231 49.3515 39.0521V39.0521Z" fill="#1AADB6"/>
</svg>
