<svg width="70" height="73" viewBox="0 0 70 73" fill="none" xmlns="http://www.w3.org/2000/svg">
<ellipse cx="35" cy="36.3602" rx="35" ry="36.1655" fill="#F4F4F6"/>
<g clip-path="url(#clip0_8_425)">
<path d="M45.1323 20.8607C43.4164 20.8607 42.0254 22.2981 42.0254 24.0711V33.6502H47.3604C47.8457 33.6502 48.2393 33.2436 48.2393 32.742V24.0711C48.2393 22.2981 46.8482 20.8607 45.1323 20.8607V20.8607Z" fill="#1AADB6"/>
<path d="M30.6266 43.6861C30.6266 38.2 34.9456 33.6815 40.326 33.6967V24.4623C40.326 23.0809 40.8293 21.8188 41.6559 20.8607H26.1541C23.7318 20.8607 21.7607 22.8975 21.7607 25.4004V50.9352C21.7607 51.7522 22.7279 52.1536 23.2748 51.5631L24.3992 50.3498L25.5869 51.5776C25.9297 51.9318 26.4863 51.9318 26.8297 51.5776L27.9553 50.4152L29.092 51.58C29.4348 51.9311 29.9873 51.9311 30.3301 51.58L31.485 50.397L32.6404 51.58C32.9826 51.9311 33.5345 51.9311 33.8773 51.5806L34.1011 51.3518C31.9219 49.4691 30.6266 46.6853 30.6266 43.6861V43.6861ZM28.8709 28.1867H30.6055V26.3943C30.6055 25.8928 30.999 25.4861 31.4844 25.4861C31.9697 25.4861 32.3632 25.8928 32.3632 26.3943V28.1867H34.0978C34.5832 28.1867 34.9768 28.5933 34.9768 29.0949C34.9768 29.5964 34.5832 30.003 34.0978 30.003H32.3632V31.7954C32.3632 32.297 31.9697 32.7036 31.4844 32.7036C30.999 32.7036 30.6055 32.297 30.6055 31.7954V30.003H28.8709C28.3855 30.003 27.992 29.5964 27.992 29.0949C27.992 28.5933 28.3855 28.1867 28.8709 28.1867V28.1867ZM26.2109 34.5469H32.1289C32.6143 34.5469 33.0078 34.9535 33.0078 35.4551C33.0078 35.9566 32.6143 36.3632 32.1289 36.3632H26.2109C25.7255 36.3632 25.332 35.9566 25.332 35.4551C25.332 34.9535 25.7255 34.5469 26.2109 34.5469ZM29.1435 43.6226H26.205C25.7196 43.6226 25.3261 43.216 25.3261 42.7144C25.3261 42.2129 25.7196 41.8062 26.205 41.8062H29.1435C29.6289 41.8062 30.0224 42.2129 30.0224 42.7144C30.0224 43.216 29.6289 43.6226 29.1435 43.6226ZM29.7295 39.996H26.2079C25.7225 39.996 25.329 39.5893 25.329 39.0877C25.329 38.5863 25.7225 38.1796 26.2079 38.1796H29.7295C30.2149 38.1796 30.6084 38.5863 30.6084 39.0877C30.6084 39.5893 30.2149 39.996 29.7295 39.996Z" fill="#1AADB6"/>
<path d="M40.2947 35.5126C35.933 35.5126 32.3845 39.1793 32.3845 43.6862C32.3845 48.1931 35.933 51.8597 40.2947 51.8597C44.6563 51.8597 48.2048 48.1931 48.2048 43.6862C48.2048 39.1793 44.6563 35.5126 40.2947 35.5126ZM41.1763 47.1838V47.2701C41.1763 47.7717 40.7828 48.1783 40.2974 48.1783C39.812 48.1783 39.4185 47.7717 39.4185 47.2701V47.2547C39.0248 47.1578 38.6596 46.9975 38.3699 46.8017C37.9637 46.5272 37.8499 45.9643 38.1156 45.5445C38.3814 45.1247 38.926 45.0071 39.3323 45.2817C39.692 45.5249 40.285 45.6173 40.5764 45.4756C40.7652 45.3837 40.9114 45.1878 40.9317 44.999C40.9752 44.5968 40.3655 44.3725 40.0015 44.2239C39.4506 43.9991 38.7649 43.7193 38.3669 42.9768C37.7995 41.9185 38.2965 40.5231 39.4185 40.0459V40.0002C39.4185 39.4987 39.812 39.092 40.2974 39.092C40.778 39.092 41.168 39.4908 41.1756 39.9855C41.492 40.0876 41.7834 40.2511 42.0168 40.4735C42.3736 40.8136 42.396 41.3881 42.0669 41.7568C41.7378 42.1256 41.1817 42.1486 40.825 41.8086C40.6804 41.6708 40.2348 41.6152 40.0411 41.7495C39.911 41.84 39.8599 42.0133 39.9045 42.0965C40.0901 42.4428 41.0622 42.5614 41.7978 43.1538C43.3006 44.3639 42.7777 46.5491 41.1763 47.1838V47.1838Z" fill="#1AADB6"/>
</g>
<defs>
<clipPath id="clip0_8_425">
<rect width="30" height="30.999" fill="white" transform="translate(20 20.8607)"/>
</clipPath>
</defs>
</svg>
