<svg width="70" height="73" viewBox="0 0 70 73" fill="none" xmlns="http://www.w3.org/2000/svg">
<ellipse cx="35" cy="36.3602" rx="35" ry="36.1655" fill="#F4F4F6"/>
<g clip-path="url(#clip0_8_400)">
<path d="M29.9901 26.6731H40.0101L42.1726 24.8855C42.9089 24.2784 43.1839 23.2929 42.8726 22.3732C42.5614 21.4536 41.7526 20.8607 40.8126 20.8607H29.1876C28.2476 20.8607 27.4389 21.4549 27.1276 22.3732C26.8164 23.2916 27.0914 24.2784 27.8264 24.8842L29.9901 26.6731Z" fill="#1AADB6"/>
<path d="M40.1813 28.6105H29.8187C26.405 32.0733 23.75 38.1491 23.75 43.1413C23.75 47.4798 25.9725 51.8597 30.9375 51.8597H39.375C43.6162 51.8597 46.25 48.5184 46.25 43.1413C46.25 38.1491 43.595 32.0733 40.1813 28.6105ZM34.525 39.2664H35.475C36.9362 39.2664 38.125 40.4948 38.125 42.0046C38.125 43.3622 37.1775 44.4794 35.9375 44.7067V45.7233C35.9375 46.258 35.5175 46.692 35 46.692C34.4825 46.692 34.0625 46.258 34.0625 45.7233V44.7558H32.8125C32.295 44.7558 31.875 44.3218 31.875 43.7871C31.875 43.2523 32.295 42.8184 32.8125 42.8184H35.475C35.9025 42.8184 36.25 42.4593 36.25 42.0176C36.25 41.5629 35.9025 41.2038 35.475 41.2038H34.525C33.0637 41.2038 31.875 39.9754 31.875 38.4656C31.875 37.1081 32.8225 35.9908 34.0625 35.7635V34.7457C34.0625 34.211 34.4825 33.777 35 33.777C35.5175 33.777 35.9375 34.211 35.9375 34.7457V35.7144H37.1875C37.705 35.7144 38.125 36.1484 38.125 36.6831C38.125 37.2179 37.705 37.6519 37.1875 37.6519H34.525C34.0975 37.6519 33.75 38.0109 33.75 38.4527C33.75 38.9073 34.0975 39.2664 34.525 39.2664V39.2664Z" fill="#1AADB6"/>
</g>
<defs>
<clipPath id="clip0_8_400">
<rect width="30" height="30.999" fill="white" transform="translate(20 20.8607)"/>
</clipPath>
</defs>
</svg>
