<svg width="55" height="58" viewBox="0 0 55 58" fill="none" xmlns="http://www.w3.org/2000/svg">
<rect y="0.686157" width="55" height="56.8315" rx="20" fill="#F4F4F6"/>
<g clip-path="url(#clip0_8_337)">
<path d="M19.209 38.4249C19.6135 38.4249 19.9414 38.0861 19.9414 37.6681C19.9414 37.2502 19.6135 36.9113 19.209 36.9113C18.8045 36.9113 18.4766 37.2502 18.4766 37.6681C18.4766 38.0861 18.8045 38.4249 19.209 38.4249Z" fill="#314CA3"/>
<path d="M34.8337 28.6231C36.1271 28.4264 37.3007 27.8164 38.2275 26.8586C39.1099 25.9469 39.6907 24.796 39.907 23.5302C40.1183 22.2939 39.9697 21.0364 39.4773 19.8937C39.2684 19.4091 38.653 19.2915 38.2903 19.6664L35.2899 22.7666C35.1661 22.8946 34.9646 22.8946 34.8407 22.7666L33.6309 21.5166C33.5073 21.3889 33.5073 21.181 33.6309 21.0533L36.6317 17.9527C36.9948 17.5775 36.8804 16.9419 36.4117 16.7262C35.3058 16.2173 34.0888 16.0638 32.8923 16.2821C31.6673 16.5056 30.5534 17.1057 29.671 18.0175C28.7442 18.9752 28.1537 20.1878 27.9634 21.5242C27.8063 22.6271 27.9316 23.7306 28.3255 24.7501L26.1284 26.615L21.222 21.5453L22.0852 20.6535C22.3945 20.3339 22.3653 19.806 22.022 19.5251L18.7012 16.8072C18.4097 16.5688 17.9914 16.5937 17.7285 16.8654L15.6569 19.0058C15.394 19.2775 15.3698 19.7096 15.6007 20.0108L18.231 23.4422C18.5029 23.7968 19.0134 23.8274 19.3231 23.5074L20.1862 22.6155L24.9911 27.5803L15.972 35.2355C14.7713 36.2167 14.6677 38.063 15.7499 39.1812L17.745 41.2428C18.8272 42.3609 20.6139 42.2541 21.5639 41.0133L28.9726 31.6942L29.7169 32.4632L28.6464 33.5694C28.3712 33.8535 28.3593 34.3105 28.619 34.6097L34.2003 41.0393C35.298 42.2982 37.1915 42.3505 38.3522 41.1511L39.1607 40.3157C40.3239 39.1138 40.2687 37.1431 39.0394 36.0129C39.0389 36.0125 39.0384 36.0121 39.0379 36.0116L32.7868 30.2962C32.4969 30.0311 32.0574 30.0449 31.7835 30.3278L30.7526 31.3929L29.9068 30.5191L31.7117 28.2489C32.6983 28.6559 33.7663 28.7854 34.8337 28.6231V28.6231ZM18.8687 21.8364L17.1539 19.5994L18.303 18.4122L20.4679 20.184L18.8687 21.8364ZM32.3321 31.9014L38.0663 37.1442C38.3566 37.4114 38.5228 37.7797 38.5342 38.1812C38.5455 38.5831 38.4002 38.961 38.125 39.2454L37.3165 40.0809C37.0425 40.3639 36.6784 40.5144 36.2914 40.5036C35.9042 40.4932 35.5481 40.3237 35.2898 40.0275L30.1727 34.1327L32.3321 31.9014ZM30.9372 26.8386L28.3518 30.0906C28.3515 30.091 28.3511 30.0915 28.3508 30.0919L20.4274 40.0584C20.424 40.0626 20.4206 40.067 20.4173 40.0713C20.0113 40.6055 19.2468 40.6539 18.7808 40.1725L16.7857 38.111C16.3209 37.6308 16.3655 36.8406 16.8837 36.4201C16.8879 36.4167 16.8921 36.4132 16.8962 36.4097L26.542 28.2227C26.5423 28.2224 26.5425 28.2221 26.5428 28.2219L29.6904 25.5503C29.9576 25.3236 30.0349 24.9345 29.8757 24.6173C28.9526 22.7773 29.2866 20.5552 30.7068 19.0877C31.5814 18.184 32.7654 17.7038 33.9627 17.7038C34.2207 17.7038 34.4793 17.7261 34.7356 17.7713L32.5951 19.983C31.9004 20.7008 31.9004 21.8689 32.5951 22.5868L33.8049 23.8368C34.4998 24.5549 35.6307 24.555 36.3257 23.8368L38.4658 21.6256C38.7123 23.1191 38.2547 24.69 37.1917 25.7884C35.7715 27.2558 33.6209 27.6008 31.8402 26.6471C31.5332 26.4826 31.1567 26.5625 30.9372 26.8386V26.8386Z" fill="#314CA3"/>
</g>
<defs>
<clipPath id="clip0_8_337">
<rect width="25" height="25.8325" fill="white" transform="translate(15 16.1857)"/>
</clipPath>
</defs>
</svg>
