<svg width="55" height="58" viewBox="0 0 55 58" fill="none" xmlns="http://www.w3.org/2000/svg">
<rect y="0.521698" width="55" height="56.8315" rx="20" fill="#F4F4F6"/>
<g clip-path="url(#clip0_8_323)">
<path d="M39.3716 29.5545C38.938 29.5008 38.5444 29.821 38.4925 30.2692C37.8424 35.8974 33.2035 40.1418 27.7021 40.1418C22.754 40.1418 18.5046 36.7084 17.2264 31.9231L18.1727 32.4601C18.5557 32.6774 19.0367 32.5327 19.2468 32.1372C19.4571 31.7415 19.3172 31.2445 18.9343 31.0272L16.5069 29.6496C16.1244 29.4325 15.6438 29.5766 15.4333 29.9717L14.0982 32.4767C13.8875 32.8722 14.027 33.3692 14.4095 33.5869C14.8046 33.7778 15.2561 33.684 15.4839 33.2653L15.7933 32.6849C17.3607 37.9976 22.1471 41.7765 27.7021 41.7765C34.0041 41.7765 39.3183 36.9127 40.0631 30.4629C40.1151 30.0147 39.8052 29.6079 39.3716 29.5545V29.5545Z" fill="#314CA3"/>
<path d="M40.5214 23.0577C40.1205 22.8791 39.655 23.07 39.482 23.4846L39.2327 24.0815C38.4539 22.1137 37.2039 20.3528 35.5939 18.9895C33.3772 17.1119 30.5745 16.0781 27.702 16.0781C24.8295 16.0781 22.0268 17.1119 19.8099 18.9895C17.6237 20.8408 16.1002 23.4248 15.5201 26.2651C15.4299 26.7067 15.7035 27.1403 16.1309 27.2336C16.5577 27.3268 16.9779 27.0443 17.0679 26.6027C17.5741 24.1249 18.9039 21.8702 20.8126 20.2536C22.7473 18.6151 25.1941 17.7128 27.702 17.7128C30.2097 17.7128 32.6565 18.6151 34.5911 20.2536C36.0782 21.5128 37.2136 23.1596 37.8822 24.9974L36.8807 24.5523C36.4794 24.3741 36.0141 24.5655 35.8415 24.9801C35.6689 25.3947 35.8543 25.8754 36.2555 26.0537L38.7999 27.1846C39.2329 27.3696 39.6546 27.1806 39.8389 26.7575L40.9346 24.1317C41.1076 23.7173 40.9227 23.2365 40.5214 23.0577V23.0577Z" fill="#314CA3"/>
<path d="M32.5773 22.9144C32.8043 22.4413 32.8391 21.9049 32.6758 21.4045C32.5124 20.9041 32.1703 20.4994 31.7124 20.2649C30.7669 19.7808 29.6168 20.1819 29.1482 21.1586C29.0458 21.3723 28.9827 21.5988 28.9593 21.8291C28.3483 21.771 27.7272 21.8297 27.1253 22.0087C25.9273 22.3646 24.9083 23.1654 24.2561 24.263L22.1202 27.8576C21.8349 27.8049 21.5399 27.8268 21.2577 27.9251C20.8163 28.079 20.4593 28.4013 20.2527 28.8323L20.1118 29.1258C19.685 30.016 20.0384 31.0992 20.9001 31.5402L25.5238 33.9075C25.0685 34.8861 25.2724 35.986 26.454 36.6003C27.4899 37.04 28.6431 36.6091 29.0909 35.7339L29.5797 35.984C29.824 36.1092 30.0873 36.1724 30.3522 36.1724C30.5399 36.1724 30.7283 36.1408 30.9113 36.0769C31.3525 35.9231 31.7095 35.601 31.9163 35.1697L32.057 34.8762C32.2638 34.4449 32.2957 33.9565 32.1468 33.5003C32.0516 33.2087 31.8897 32.9528 31.6763 32.7502L33.1504 28.817C33.6005 27.6156 33.5996 26.2928 33.1481 25.0923C32.9213 24.4891 32.5903 23.9429 32.1756 23.4757C32.3386 23.3169 32.4749 23.1281 32.5773 22.9144V22.9144ZM30.8614 21.691C31.045 21.691 31.1937 21.8446 31.1937 22.0341C31.1937 22.2237 31.045 22.3772 30.8614 22.3772C30.6781 22.3772 30.5294 22.2235 30.5294 22.0341C30.5294 21.8446 30.6781 21.691 30.8614 21.691ZM27.4697 35.1574C27.3659 35.1937 27.2547 35.1859 27.1564 35.1357C27.0582 35.0854 26.9848 34.9985 26.9498 34.8913C26.9224 34.8074 26.9214 34.7186 26.9455 34.6356L27.6694 35.0062C27.6197 35.0762 27.5509 35.1293 27.4697 35.1574ZM31.6751 28.2267L30.0694 32.511C29.8434 33.0403 30.0595 33.6669 30.566 33.9266H30.5662C30.6488 33.9722 30.6791 34.0659 30.6396 34.1505L30.4987 34.4441C30.4515 34.5292 30.3675 34.5571 30.2822 34.5194L21.6025 30.0755C21.5226 30.0347 21.4896 29.9342 21.5292 29.8518L21.6701 29.5583C21.7082 29.4857 21.7821 29.4342 21.8868 29.4828C22.1391 29.612 22.425 29.6317 22.692 29.5389C22.9439 29.451 23.1505 29.2725 23.278 29.0334L25.6041 25.1185C26.0492 24.3693 26.7449 23.8227 27.5626 23.5796C28.3802 23.3365 29.2505 23.4176 30.0127 23.808C30.0129 23.808 30.0129 23.808 30.0131 23.8082C30.0134 23.8082 30.0134 23.8082 30.0136 23.8084C30.7759 24.1988 31.3655 24.865 31.6736 25.6845C31.9818 26.5039 31.9822 27.4068 31.6751 28.2267V28.2267Z" fill="#314CA3"/>
</g>
<defs>
<clipPath id="clip0_8_323">
<rect width="27" height="27.8991" fill="white" transform="translate(14 14.9879)"/>
</clipPath>
</defs>
</svg>
