<svg width="60" height="60" viewBox="0 0 60 60" fill="none" xmlns="http://www.w3.org/2000/svg">
<rect width="60" height="60" rx="20" fill="#F4F4F6"/>
<g clip-path="url(#clip0_23_1339)">
<path d="M32.4916 33.3372C36.6866 33.3372 40.0994 29.8971 40.0994 25.6686C40.0994 21.4402 36.6866 18 32.4916 18C28.2966 18 24.8838 21.4401 24.8838 25.6686C24.8838 29.897 28.2966 33.3372 32.4916 33.3372ZM30.047 28.0616C30.2683 27.7233 30.722 27.6283 31.0602 27.8497C31.5532 28.1722 31.7391 28.2019 32.3896 28.1973C33.0244 28.1931 33.3928 27.7199 33.4664 27.282C33.5022 27.069 33.5159 26.5489 32.8713 26.321C32.1152 26.0536 31.3413 25.7481 30.803 25.3259C30.2646 24.9036 30.0181 24.1746 30.1596 23.4236C30.3131 22.6094 30.8811 21.9612 31.642 21.732C31.6488 21.73 31.6556 21.7284 31.6625 21.7263V21.4488C31.6625 21.0446 31.9902 20.7168 32.3944 20.7168C32.7987 20.7168 33.1264 21.0446 33.1264 21.4488V21.6802C33.6236 21.7989 33.9708 22.0263 34.1118 22.1317C34.4356 22.3738 34.5018 22.8324 34.2598 23.1562C34.0177 23.4801 33.5591 23.5464 33.2353 23.3042C33.0852 23.1921 32.6707 22.951 32.0642 23.1338C31.7098 23.2405 31.618 23.5901 31.5982 23.6947C31.5595 23.9002 31.603 24.0928 31.7064 24.1739C32.0796 24.4666 32.7514 24.7258 33.3592 24.9406C34.4801 25.3368 35.1033 26.3753 34.9102 27.5247C34.8153 28.0887 34.5316 28.6119 34.1112 28.9981C33.8248 29.2613 33.4916 29.4488 33.1264 29.556V29.8883C33.1264 30.2926 32.7987 30.6203 32.3944 30.6203C31.9902 30.6203 31.6625 30.2926 31.6625 29.8883V29.629C31.1892 29.5716 30.7918 29.4236 30.2588 29.0748C29.9205 28.8535 29.8257 28.3999 30.047 28.0616Z" fill="#1AADB6"/>
<path d="M20.7741 35.7968H19.105C18.7008 35.7968 18.373 36.1245 18.373 36.5287V42.267C18.373 42.6713 18.7008 42.999 19.105 42.999H20.7741V35.7968H20.7741Z" fill="#1AADB6"/>
<path d="M42.4118 35.7456C41.0399 34.3736 38.8075 34.3736 37.4356 35.7456L35.2429 37.9383L34.3441 38.837C33.9809 39.2002 33.4882 39.4043 32.9746 39.4043H28.6044C28.2097 39.4043 27.8701 39.101 27.8515 38.7067C27.8317 38.2858 28.1671 37.9383 28.5837 37.9383H33.0257C33.9188 37.9383 34.6934 37.3024 34.847 36.4226C34.8822 36.2206 34.9006 36.0129 34.9006 35.8009C34.9007 35.3959 34.5726 35.0673 34.1676 35.0673H31.7337C30.9382 35.0673 30.1744 34.7065 29.3656 34.3244C28.5174 33.9237 27.6402 33.5093 26.6146 33.4411C25.7176 33.3813 24.8185 33.4796 23.9423 33.7326C23.004 34.0035 22.3295 34.8371 22.2477 35.7995C22.2446 35.7993 22.2415 35.7992 22.2383 35.799V42.9965L34.8493 42.9999C35.7164 42.9999 36.5316 42.6622 37.1448 42.0491L42.4117 36.7822C42.6981 36.496 42.6981 36.0319 42.4118 35.7456Z" fill="#1AADB6"/>
</g>
<defs>
<clipPath id="clip0_23_1339">
<rect width="25" height="25" fill="white" transform="translate(18 18)"/>
</clipPath>
</defs>
</svg>
