<svg width="70" height="73" viewBox="0 0 70 73" fill="none" xmlns="http://www.w3.org/2000/svg">
<ellipse cx="35" cy="36.3602" rx="35" ry="36.1655" fill="#F4F4F6"/>
<g clip-path="url(#clip0_8_411)">
<path d="M47.9818 35.7044H46.1975C45.7913 34.5304 45.1368 33.4792 44.2991 32.6199L47.0509 31.3646C47.444 31.1853 47.6593 30.7371 47.5475 30.3085C47.2156 29.036 46.0955 28.0999 44.7648 28.0999H42.4951C41.19 28.0999 40.088 29.0006 39.733 30.2358H37.3359C36.4356 33.6722 33.3946 36.2075 29.7913 36.2075C27.5917 36.2075 25.6018 35.2626 24.1802 33.745C23.7799 34.3353 23.4519 34.9823 23.2102 35.6723C22.4923 35.51 21.9019 34.9232 21.7369 34.159C21.6312 33.6694 21.1611 33.3608 20.6876 33.4704C20.2139 33.5797 19.9155 34.0651 20.0213 34.5546C20.2011 35.387 20.6535 36.1427 21.2951 36.6824C21.7343 37.0519 22.2507 37.309 22.7978 37.438C22.7552 37.7842 22.7332 38.137 22.7332 38.4951V39.3757C22.7332 42.7131 24.6402 45.5879 27.3846 46.8906V48.892C27.3846 49.9813 28.2392 50.8643 29.2933 50.8643C30.3475 50.8643 31.2021 49.9813 31.2021 48.892V47.6349H38.3524V48.892C38.3524 49.9813 39.207 50.8643 40.2612 50.8643C41.3154 50.8643 42.1699 49.9813 42.1699 48.892V46.8136C44.1766 45.805 45.7132 43.9472 46.3467 41.6897H47.9816C49.0964 41.6897 50.0001 40.7515 50.0001 39.5942V37.7998C50.0002 36.6426 49.0965 35.7044 47.9818 35.7044ZM41.4964 36.2288C41.0128 36.2288 40.6207 35.8237 40.6207 35.3239C40.6207 34.8241 41.0127 34.419 41.4964 34.419C41.9801 34.419 42.3722 34.8241 42.3722 35.3239C42.3722 35.8237 41.9801 36.2288 41.4964 36.2288Z" fill="#1AADB6"/>
<path d="M29.7912 21.8562C26.4507 21.8562 23.7332 24.6678 23.7332 28.1237C23.7332 31.5796 26.4508 34.3912 29.7912 34.3912C33.1317 34.3912 35.8493 31.5796 35.8493 28.1237C35.8493 24.6677 33.1316 21.8562 29.7912 21.8562ZM29.2287 27.166H30.3538C31.623 27.166 32.6554 28.2337 32.6554 29.546C32.6554 30.7472 31.7901 31.7429 30.6702 31.9028V32.244C30.6702 32.7456 30.2766 33.1522 29.7912 33.1522C29.3059 33.1522 28.9123 32.7456 28.9123 32.244V31.9259H28.6881C27.7171 31.9259 26.927 31.1091 26.927 30.1051C26.927 29.6036 27.3205 29.197 27.8059 29.197C28.2913 29.197 28.6848 29.6036 28.6848 30.1051L30.3538 30.1095C30.6536 30.1095 30.8976 29.8567 30.8976 29.5459C30.8976 29.2352 30.6536 28.9824 30.3538 28.9824H29.2286C27.9595 28.9824 26.927 27.9148 26.927 26.6025C26.927 25.4012 27.7924 24.4055 28.9123 24.2456V24.0035C28.9123 23.5019 29.3059 23.0953 29.7912 23.0953C30.2766 23.0953 30.6702 23.5019 30.6702 24.0035V24.2225H30.8943C31.8654 24.2225 32.6554 25.0393 32.6554 26.0433C32.6554 26.5448 32.2619 26.9515 31.7765 26.9515C31.2911 26.9515 30.8976 26.5448 30.8976 26.0433C30.8976 26.0418 30.8975 26.0412 30.8975 26.0412L29.2287 26.0389C28.9288 26.0389 28.6849 26.2917 28.6849 26.6025C28.6849 26.9132 28.9288 27.166 29.2287 27.166Z" fill="#1AADB6"/>
</g>
<defs>
<clipPath id="clip0_8_411">
<rect width="30" height="30.999" fill="white" transform="translate(20 20.8607)"/>
</clipPath>
</defs>
</svg>
