<svg width="25" height="25" viewBox="0 0 25 25" fill="none" xmlns="http://www.w3.org/2000/svg">
<g clip-path="url(#clip0_8_478)">
<path d="M14.4922 15.3372C18.6872 15.3372 22.1 11.8971 22.1 7.66863C22.1 3.44019 18.6872 0 14.4922 0C10.2973 0 6.8844 3.44014 6.8844 7.66858C6.8844 11.897 10.2973 15.3372 14.4922 15.3372ZM12.0476 10.0616C12.2689 9.72331 12.7226 9.62835 13.0608 9.84975C13.5538 10.1722 13.7397 10.2019 14.3902 10.1973C15.0251 10.1931 15.3934 9.71994 15.467 9.28202C15.5028 9.06901 15.5166 8.54886 14.8719 8.32097C14.1158 8.05365 13.3419 7.74812 12.8036 7.32586C12.2652 6.9036 12.0187 6.17464 12.1603 5.42358C12.3137 4.60936 12.8817 3.96121 13.6426 3.73205C13.6495 3.73 13.6562 3.72835 13.6631 3.7263V3.44882C13.6631 3.04457 13.9908 2.71684 14.3951 2.71684C14.7993 2.71684 15.127 3.04457 15.127 3.44882V3.68018C15.6242 3.79886 15.9714 4.02631 16.1124 4.13167C16.4362 4.37376 16.5024 4.83242 16.2604 5.15625C16.0184 5.48009 15.5597 5.54635 15.2359 5.30421C15.0859 5.19207 14.6713 4.95101 14.0648 5.13376C13.7105 5.24053 13.6186 5.59013 13.5989 5.6947C13.5602 5.9002 13.6036 6.09281 13.707 6.17391C14.0802 6.46661 14.752 6.72578 15.3598 6.94064C16.4807 7.33684 17.1039 8.37529 16.9108 9.5247C16.8159 10.0887 16.5322 10.6119 16.1118 10.9981C15.8255 11.2613 15.4922 11.4488 15.127 11.556V11.8883C15.127 12.2926 14.7993 12.6203 14.3951 12.6203C13.9908 12.6203 13.6631 12.2926 13.6631 11.8883V11.629C13.1898 11.5716 12.7924 11.4236 12.2594 11.0748C11.9211 10.8535 11.8263 10.3999 12.0476 10.0616V10.0616Z" fill="#888EA2"/>
<path d="M2.77442 17.7968H1.1054C0.701147 17.7968 0.373413 18.1245 0.373413 18.5287V24.267C0.373413 24.6713 0.701147 24.999 1.1054 24.999H2.77447V17.7968H2.77442Z" fill="#888EA2"/>
<path d="M24.4119 17.7457C23.04 16.3737 20.8076 16.3736 19.4357 17.7457L17.243 19.9384L16.3442 20.8371C15.981 21.2003 15.4883 21.4044 14.9747 21.4044H10.6045C10.2099 21.4044 9.8702 21.101 9.85161 20.7068C9.8318 20.2859 10.1672 19.9384 10.5838 19.9384H15.0258C15.9189 19.9384 16.6935 19.3025 16.8471 18.4227C16.8823 18.2207 16.9007 18.0129 16.9007 17.801C16.9008 17.396 16.5727 17.0674 16.1677 17.0674H13.7338C12.9384 17.0674 12.1745 16.7065 11.3658 16.3244C10.5175 15.9238 9.64036 15.5094 8.61475 15.4412C7.71773 15.3814 6.81865 15.4796 5.94237 15.7327C5.00411 16.0036 4.32966 16.8372 4.24787 17.7996C4.24475 17.7993 4.24158 17.7993 4.2384 17.7991V24.9965L16.8494 25C17.7165 25 18.5317 24.6623 19.1449 24.0491L24.4118 18.7823C24.6982 18.4961 24.6982 18.0319 24.4119 17.7457V17.7457Z" fill="#888EA2"/>
</g>
<defs>
<clipPath id="clip0_8_478">
<rect width="25" height="25" fill="white"/>
</clipPath>
</defs>
</svg>
