<svg width="25" height="25" viewBox="0 0 25 25" fill="none" xmlns="http://www.w3.org/2000/svg">
<g clip-path="url(#clip0_3_146)">
<path d="M14.492 15.3372C18.687 15.3372 22.0998 11.8971 22.0998 7.66863C22.0998 3.44019 18.687 0 14.492 0C10.297 0 6.88419 3.44014 6.88419 7.66858C6.88419 11.897 10.297 15.3372 14.492 15.3372ZM12.0474 10.0616C12.2687 9.72331 12.7224 9.62835 13.0606 9.84975C13.5536 10.1722 13.7395 10.2019 14.39 10.1973C15.0248 10.1931 15.3932 9.71994 15.4668 9.28202C15.5026 9.06901 15.5163 8.54886 14.8717 8.32097C14.1156 8.05365 13.3417 7.74812 12.8034 7.32586C12.265 6.9036 12.0185 6.17464 12.16 5.42358C12.3135 4.60936 12.8815 3.96121 13.6424 3.73205C13.6492 3.73 13.656 3.72835 13.6629 3.7263V3.44882C13.6629 3.04457 13.9906 2.71684 14.3948 2.71684C14.7991 2.71684 15.1268 3.04457 15.1268 3.44882V3.68018C15.624 3.79886 15.9712 4.02631 16.1122 4.13167C16.436 4.37376 16.5022 4.83242 16.2602 5.15625C16.0181 5.48009 15.5595 5.54635 15.2357 5.30421C15.0856 5.19207 14.6711 4.95101 14.0646 5.13376C13.7102 5.24053 13.6184 5.59013 13.5986 5.6947C13.5599 5.9002 13.6034 6.09281 13.7068 6.17391C14.08 6.46661 14.7518 6.72578 15.3596 6.94064C16.4805 7.33684 17.1037 8.37529 16.9106 9.5247C16.8157 10.0887 16.532 10.6119 16.1116 10.9981C15.8252 11.2613 15.492 11.4488 15.1268 11.556V11.8883C15.1268 12.2926 14.7991 12.6203 14.3948 12.6203C13.9906 12.6203 13.6629 12.2926 13.6629 11.8883V11.629C13.1896 11.5716 12.7922 11.4236 12.2592 11.0748C11.9209 10.8535 11.8261 10.3999 12.0474 10.0616V10.0616Z" fill="#888EA2"/>
<path d="M2.77445 17.7968H1.10543C0.701178 17.7968 0.373444 18.1245 0.373444 18.5287V24.267C0.373444 24.6713 0.701178 24.999 1.10543 24.999H2.7745V17.7968H2.77445Z" fill="#888EA2"/>
<path d="M24.4122 17.7457C23.0403 16.3737 20.8079 16.3736 19.436 17.7457L17.2433 19.9384L16.3445 20.8371C15.9813 21.2003 15.4886 21.4044 14.975 21.4044H10.6048C10.2101 21.4044 9.87048 21.101 9.85189 20.7068C9.83208 20.2859 10.1675 19.9384 10.5841 19.9384H15.0261C15.9192 19.9384 16.6938 19.3025 16.8474 18.4227C16.8826 18.2207 16.901 18.0129 16.901 17.801C16.9011 17.396 16.573 17.0674 16.168 17.0674H13.734C12.9386 17.0674 12.1748 16.7065 11.366 16.3244C10.5178 15.9238 9.64064 15.5094 8.61503 15.4412C7.71801 15.3814 6.81893 15.4796 5.94265 15.7327C5.00438 16.0036 4.32993 16.8372 4.24815 17.7996C4.24502 17.7993 4.24185 17.7993 4.23868 17.7991V24.9965L16.8497 25C17.7168 25 18.532 24.6623 19.1452 24.0491L24.4121 18.7823C24.6985 18.4961 24.6985 18.0319 24.4122 17.7457V17.7457Z" fill="#888EA2"/>
</g>
<defs>
<clipPath id="clip0_3_146">
<rect width="25" height="25" fill="white"/>
</clipPath>
</defs>
</svg>
