<svg width="25" height="25" viewBox="0 0 25 25" fill="none" xmlns="http://www.w3.org/2000/svg">
<g clip-path="url(#clip0_19_1083)">
<path d="M14.4921 15.3372C18.6871 15.3372 22.0999 11.8971 22.0999 7.66863C22.0999 3.44019 18.6871 0 14.4921 0C10.2971 0 6.88428 3.44014 6.88428 7.66858C6.88428 11.897 10.2971 15.3372 14.4921 15.3372ZM12.0475 10.0616C12.2688 9.72331 12.7224 9.62835 13.0607 9.84975C13.5537 10.1722 13.7396 10.2019 14.3901 10.1973C15.0249 10.1931 15.3933 9.71994 15.4669 9.28202C15.5027 9.06901 15.5164 8.54886 14.8718 8.32097C14.1157 8.05365 13.3418 7.74812 12.8035 7.32586C12.2651 6.9036 12.0186 6.17464 12.1601 5.42358C12.3136 4.60936 12.8816 3.96121 13.6425 3.73205C13.6493 3.73 13.6561 3.72835 13.663 3.7263V3.44882C13.663 3.04457 13.9907 2.71684 14.3949 2.71684C14.7992 2.71684 15.1269 3.04457 15.1269 3.44882V3.68018C15.6241 3.79886 15.9713 4.02631 16.1123 4.13167C16.4361 4.37376 16.5023 4.83242 16.2603 5.15625C16.0182 5.48009 15.5596 5.54635 15.2357 5.30421C15.0857 5.19207 14.6712 4.95101 14.0647 5.13376C13.7103 5.24053 13.6184 5.59013 13.5987 5.6947C13.56 5.9002 13.6035 6.09281 13.7069 6.17391C14.0801 6.46661 14.7519 6.72578 15.3597 6.94064C16.4806 7.33684 17.1038 8.37529 16.9107 9.5247C16.8158 10.0887 16.5321 10.6119 16.1117 10.9981C15.8253 11.2613 15.492 11.4488 15.1269 11.556V11.8883C15.1269 12.2926 14.7992 12.6203 14.3949 12.6203C13.9907 12.6203 13.663 12.2926 13.663 11.8883V11.629C13.1897 11.5716 12.7923 11.4236 12.2592 11.0748C11.921 10.8535 11.8262 10.3999 12.0475 10.0616V10.0616Z" fill="#888EA2"/>
<path d="M2.77455 17.7968H1.10552C0.701269 17.7968 0.373535 18.1245 0.373535 18.5287V24.267C0.373535 24.6713 0.701269 24.999 1.10552 24.999H2.7746V17.7968H2.77455Z" fill="#888EA2"/>
<path d="M24.4123 17.7457C23.0404 16.3737 20.808 16.3736 19.4361 17.7457L17.2434 19.9384L16.3446 20.8371C15.9814 21.2003 15.4887 21.4044 14.9751 21.4044H10.6049C10.2102 21.4044 9.87057 21.101 9.85198 20.7068C9.83217 20.2859 10.1676 19.9384 10.5842 19.9384H15.0262C15.9193 19.9384 16.6939 19.3025 16.8475 18.4227C16.8827 18.2207 16.9011 18.0129 16.9011 17.801C16.9012 17.396 16.5731 17.0674 16.1681 17.0674H13.7341C12.9387 17.0674 12.1749 16.7065 11.3661 16.3244C10.5178 15.9238 9.64073 15.5094 8.61512 15.4412C7.7181 15.3814 6.81902 15.4796 5.94274 15.7327C5.00448 16.0036 4.33002 16.8372 4.24824 17.7996C4.24511 17.7993 4.24194 17.7993 4.23877 17.7991V24.9965L16.8498 25C17.7169 25 18.5321 24.6623 19.1453 24.0491L24.4122 18.7823C24.6986 18.4961 24.6986 18.0319 24.4123 17.7457V17.7457Z" fill="#888EA2"/>
</g>
<defs>
<clipPath id="clip0_19_1083">
<rect width="25" height="25" fill="white"/>
</clipPath>
</defs>
</svg>
