<svg width="69" height="69" viewBox="0 0 69 69" fill="none" xmlns="http://www.w3.org/2000/svg">
<path d="M45.9872 11.3977C41.9512 11.3926 37.9855 12.454 34.4914 14.4742C37.9875 16.4904 40.8907 19.3921 42.9088 22.8871C44.927 26.3821 45.9887 30.3471 45.9872 34.3829H22.9893C22.9893 38.929 24.3374 43.3729 26.863 47.1528C29.3887 50.9328 32.9785 53.8787 37.1785 55.6186C41.3785 57.3582 46.0001 57.8134 50.4587 56.9264C54.9175 56.0396 59.013 53.8504 62.2275 50.6359C65.4421 47.4214 67.6313 43.3259 68.5181 38.8671C69.4049 34.4085 68.9499 29.7868 67.2102 25.5868C65.4704 21.3868 62.5244 17.797 58.7444 15.2714C54.9646 12.7457 50.5207 11.3977 45.9746 11.3977H45.9872Z" fill="#7B90D1"/>
<path d="M34.4914 14.4742C30.9937 16.4892 28.0889 19.3904 26.0696 22.8855C24.0503 26.3807 22.9878 30.3464 22.9893 34.383H45.9746C45.9774 30.3484 44.9175 26.3842 42.9017 22.8893C40.8858 19.3944 37.9851 16.492 34.4914 14.4742V14.4742Z" fill="url(#paint0_linear_3_195)"/>
<path d="M34.4909 14.4742C37.9869 16.4904 40.8903 19.3921 42.9083 22.8871C44.9264 26.3821 45.9882 30.3471 45.9868 34.3829H22.9887C22.9872 38.4171 24.0482 42.3807 26.0653 45.8745C28.0821 49.3683 30.9839 52.2692 34.4783 54.2852C30.9841 56.3028 27.0204 57.3649 22.9856 57.3649C18.9508 57.3651 14.9871 56.303 11.4928 54.2856C7.99857 52.2682 5.09693 49.3668 3.07952 45.8724C1.0621 42.3783 0 38.4146 0 34.3798C0 30.345 1.0621 26.3812 3.07952 22.887C5.09693 19.3928 7.99857 16.4912 11.4928 14.4738C14.9871 12.4565 18.9508 11.3944 22.9856 11.3945C27.0204 11.3946 30.9841 12.4567 34.4783 14.4742H34.4909Z" fill="#314CA3"/>
<path style="mix-blend-mode:multiply" opacity="0.3" d="M22.9893 34.3829H45.9746L34.5104 54.298C31.0083 52.2849 28.099 49.3837 26.0762 45.8872C24.0534 42.3906 22.9886 38.4224 22.9893 34.3829V34.3829Z" fill="url(#paint1_linear_3_195)"/>
<path style="mix-blend-mode:multiply" opacity="0.3" d="M22.9891 34.4146C22.9877 38.4496 24.0488 42.414 26.0657 45.9088C28.0826 49.4036 30.9842 52.3058 34.4787 54.3233C30.9864 56.3366 27.0264 57.3962 22.9955 57.3962C18.9646 57.3962 15.0045 56.3366 11.5124 54.3233L22.9891 34.4146Z" fill="url(#paint2_linear_3_195)"/>
<defs>
<linearGradient id="paint0_linear_3_195" x1="31.5154" y1="21.1491" x2="44.5411" y2="4.51075" gradientUnits="userSpaceOnUse">
<stop stop-color="#FFCF8E"/>
<stop offset="1" stop-color="#FF8B79"/>
</linearGradient>
<linearGradient id="paint1_linear_3_195" x1="11.4967" y1="34.3828" x2="11.4966" y2="54.298" gradientUnits="userSpaceOnUse">
<stop offset="0.49" stop-color="white"/>
<stop offset="0.54" stop-color="#F3F3F3"/>
<stop offset="0.62" stop-color="#D1D1D1"/>
<stop offset="0.73" stop-color="#9C9C9C"/>
<stop offset="0.87" stop-color="#515151"/>
<stop offset="1"/>
</linearGradient>
<linearGradient id="paint2_linear_3_195" x1="21.2971" y1="40.4287" x2="33.3291" y2="20.8534" gradientUnits="userSpaceOnUse">
<stop offset="0.49" stop-color="white"/>
<stop offset="0.54" stop-color="#F3F3F3"/>
<stop offset="0.62" stop-color="#D1D1D1"/>
<stop offset="0.73" stop-color="#9C9C9C"/>
<stop offset="0.87" stop-color="#515151"/>
<stop offset="1"/>
</linearGradient>
</defs>
</svg>
