<svg width="68" height="69" viewBox="0 0 68 69" fill="none" xmlns="http://www.w3.org/2000/svg">
<path d="M45.3208 11.3977C41.3433 11.3926 37.435 12.454 33.9916 14.4742C37.4371 16.4904 40.2982 19.3921 42.287 22.8871C44.276 26.3821 45.3224 30.3471 45.3208 34.3829H22.6562C22.6562 38.929 23.9848 43.3729 26.4738 47.1528C28.9629 50.9328 32.5007 53.8787 36.6398 55.6186C40.7789 57.3582 45.3336 57.8134 49.7276 56.9264C54.1217 56.0396 58.1579 53.8504 61.3258 50.6359C64.4938 47.4214 66.6512 43.3259 67.5252 38.8671C68.3992 34.4085 67.9507 29.7868 66.2363 25.5868C64.5216 21.3868 61.6184 17.797 57.8932 15.2714C54.1681 12.7457 49.7886 11.3977 45.3084 11.3977H45.3208Z" fill="#7B90D1"/>
<path d="M33.9916 14.4742C30.5447 16.4892 27.6819 19.3904 25.6919 22.8855C23.7018 26.3807 22.6548 30.3464 22.6563 34.383H45.3084C45.3111 30.3484 44.2667 26.3842 42.28 22.8893C40.2934 19.3944 37.4347 16.492 33.9916 14.4742V14.4742Z" fill="url(#paint0_linear_19_1132)"/>
<path d="M33.991 14.4742C37.4364 16.4904 40.2976 19.3921 42.2865 22.8871C44.2753 26.3821 45.3217 30.3471 45.3203 34.3829H22.6556C22.654 38.4171 23.6997 42.3807 25.6875 45.8745C27.6752 49.3683 30.5349 52.2692 33.9786 54.2852C30.5351 56.3028 26.6288 57.3649 22.6525 57.3649C18.6762 57.3651 14.7699 56.303 11.3263 54.2856C7.88265 52.2682 5.02306 49.3668 3.03489 45.8724C1.04671 42.3783 0 38.4146 0 34.3798C0 30.345 1.04671 26.3812 3.03489 22.887C5.02306 19.3928 7.88265 16.4912 11.3263 14.4738C14.7699 12.4565 18.6762 11.3944 22.6525 11.3945C26.6288 11.3946 30.5351 12.4567 33.9786 14.4742H33.991Z" fill="#314CA3"/>
<path style="mix-blend-mode:multiply" opacity="0.3" d="M22.6563 34.3829H45.3084L34.0104 54.298C30.559 52.2849 27.6919 49.3837 25.6984 45.8872C23.7049 42.3906 22.6556 38.4224 22.6563 34.3829V34.3829Z" fill="url(#paint1_linear_19_1132)"/>
<path style="mix-blend-mode:multiply" opacity="0.3" d="M22.6562 34.4146C22.6547 38.4496 23.7004 42.414 25.6881 45.9088C27.6757 49.4036 30.5353 52.3058 33.9792 54.3233C30.5375 56.3366 26.6349 57.3962 22.6624 57.3962C18.6899 57.3962 14.7872 56.3366 11.3457 54.3233L22.6562 34.4146Z" fill="url(#paint2_linear_19_1132)"/>
<defs>
<linearGradient id="paint0_linear_19_1132" x1="31.0587" y1="21.1491" x2="44.1289" y2="4.69599" gradientUnits="userSpaceOnUse">
<stop stop-color="#FFCF8E"/>
<stop offset="1" stop-color="#FF8B79"/>
</linearGradient>
<linearGradient id="paint1_linear_19_1132" x1="11.3302" y1="34.3828" x2="11.3301" y2="54.298" gradientUnits="userSpaceOnUse">
<stop offset="0.49" stop-color="white"/>
<stop offset="0.54" stop-color="#F3F3F3"/>
<stop offset="0.62" stop-color="#D1D1D1"/>
<stop offset="0.73" stop-color="#9C9C9C"/>
<stop offset="0.87" stop-color="#515151"/>
<stop offset="1"/>
</linearGradient>
<linearGradient id="paint2_linear_19_1132" x1="20.9886" y1="40.4287" x2="33.0991" y2="21.0111" gradientUnits="userSpaceOnUse">
<stop offset="0.49" stop-color="white"/>
<stop offset="0.54" stop-color="#F3F3F3"/>
<stop offset="0.62" stop-color="#D1D1D1"/>
<stop offset="0.73" stop-color="#9C9C9C"/>
<stop offset="0.87" stop-color="#515151"/>
<stop offset="1"/>
</linearGradient>
</defs>
</svg>
