<svg width="68" height="69" viewBox="0 0 68 69" fill="none" xmlns="http://www.w3.org/2000/svg">
<path d="M45.3198 11.3977C41.3424 11.3926 37.4341 12.454 33.9907 14.4742C37.4361 16.4904 40.2972 19.3921 42.286 22.8871C44.275 26.3821 45.3214 30.3471 45.3198 34.3829H22.6553C22.6553 38.929 23.9838 43.3729 26.4728 47.1528C28.9619 50.9328 32.4997 53.8787 36.6388 55.6185C40.778 57.3582 45.3326 57.8134 49.7266 56.9264C54.1207 56.0396 58.1569 53.8504 61.3248 50.6359C64.4928 47.4213 66.6503 43.3259 67.5242 38.8671C68.3982 34.4085 67.9497 29.7868 66.2353 25.5868C64.5207 21.3868 61.6174 17.797 57.8922 15.2714C54.1672 12.7457 49.7876 11.3977 45.3074 11.3977H45.3198Z" fill="#7B90D1"/>
<path d="M33.9907 14.4742C30.5437 16.4891 27.6809 19.3904 25.6909 22.8855C23.7008 26.3807 22.6538 30.3464 22.6553 34.383H45.3074C45.3102 30.3483 44.2657 26.3842 42.2791 22.8893C40.2924 19.3944 37.4338 16.492 33.9907 14.4742V14.4742Z" fill="url(#paint0_linear_15_974)"/>
<path d="M33.991 14.4742C37.4364 16.4904 40.2976 19.3921 42.2865 22.8871C44.2753 26.3821 45.3217 30.3471 45.3203 34.3829H22.6556C22.654 38.4171 23.6997 42.3807 25.6875 45.8745C27.6752 49.3683 30.5349 52.2692 33.9786 54.2852C30.5351 56.3028 26.6288 57.3649 22.6525 57.3649C18.6762 57.3651 14.7699 56.303 11.3263 54.2856C7.88265 52.2682 5.02306 49.3667 3.03489 45.8724C1.04671 42.3783 0 38.4146 0 34.3798C0 30.345 1.04671 26.3812 3.03489 22.887C5.02306 19.3928 7.88265 16.4912 11.3263 14.4738C14.7699 12.4565 18.6762 11.3944 22.6525 11.3945C26.6288 11.3946 30.5351 12.4567 33.9786 14.4742H33.991Z" fill="#314CA3"/>
<path style="mix-blend-mode:multiply" opacity="0.3" d="M22.6553 34.3829H45.3074L34.0094 54.298C30.558 52.2849 27.6909 49.3837 25.6974 45.8871C23.704 42.3906 22.6546 38.4224 22.6553 34.3829V34.3829Z" fill="url(#paint1_linear_15_974)"/>
<path style="mix-blend-mode:multiply" opacity="0.3" d="M22.6559 34.4146C22.6545 38.4496 23.7002 42.4139 25.6878 45.9088C27.6755 49.4036 30.5351 52.3058 33.9789 54.3233C30.5373 56.3366 26.6346 57.3962 22.6622 57.3962C18.6897 57.3962 14.787 56.3366 11.3455 54.3233L22.6559 34.4146Z" fill="url(#paint2_linear_15_974)"/>
<defs>
<linearGradient id="paint0_linear_15_974" x1="31.0577" y1="21.1491" x2="44.1279" y2="4.69598" gradientUnits="userSpaceOnUse">
<stop stop-color="#FFCF8E"/>
<stop offset="1" stop-color="#FF8B79"/>
</linearGradient>
<linearGradient id="paint1_linear_15_974" x1="11.3292" y1="34.3828" x2="11.3291" y2="54.298" gradientUnits="userSpaceOnUse">
<stop offset="0.49" stop-color="white"/>
<stop offset="0.54" stop-color="#F3F3F3"/>
<stop offset="0.62" stop-color="#D1D1D1"/>
<stop offset="0.73" stop-color="#9C9C9C"/>
<stop offset="0.87" stop-color="#515151"/>
<stop offset="1"/>
</linearGradient>
<linearGradient id="paint2_linear_15_974" x1="20.9884" y1="40.4287" x2="33.0989" y2="21.0111" gradientUnits="userSpaceOnUse">
<stop offset="0.49" stop-color="white"/>
<stop offset="0.54" stop-color="#F3F3F3"/>
<stop offset="0.62" stop-color="#D1D1D1"/>
<stop offset="0.73" stop-color="#9C9C9C"/>
<stop offset="0.87" stop-color="#515151"/>
<stop offset="1"/>
</linearGradient>
</defs>
</svg>
