<svg width="70" height="69" viewBox="0 0 70 69" fill="none" xmlns="http://www.w3.org/2000/svg">
<path d="M46.6534 11.3977C42.559 11.3926 38.5357 12.454 34.9911 14.4742C38.5378 16.4904 41.4831 19.3921 43.5304 22.8871C45.5779 26.3821 46.655 30.3471 46.6534 34.3829H23.3223C23.3223 38.929 24.6899 43.3729 27.2521 47.1528C29.8144 50.9328 33.4562 53.8787 37.7171 55.6186C41.978 57.3582 46.6666 57.8134 51.1898 56.9264C55.7132 56.0396 59.868 53.8504 63.1292 50.6359C66.3903 47.4214 68.6112 43.3259 69.5109 38.8671C70.4106 34.4085 69.9489 29.7868 68.184 25.5868C66.419 21.3868 63.4303 17.797 59.5956 15.2714C55.761 12.7457 51.2526 11.3977 46.6407 11.3977H46.6534Z" fill="#7B90D1"/>
<path d="M34.9911 14.4742C31.4427 16.4892 28.4957 19.3904 26.4472 22.8855C24.3986 26.3807 23.3208 30.3464 23.3223 34.383H46.6407C46.6435 30.3484 45.5683 26.3842 43.5232 22.8893C41.4782 19.3944 38.5354 16.492 34.9911 14.4742V14.4742Z" fill="url(#paint0_linear_23_1580)"/>
<path d="M34.9907 14.4742C38.5374 16.4904 41.4829 19.3921 43.5302 22.8871C45.5775 26.3821 46.6547 30.3471 46.6533 34.3829H23.3219C23.3203 38.4171 24.3968 42.3807 26.443 45.8745C28.4891 49.3683 31.433 52.2692 34.978 54.2852C31.4332 56.3028 27.412 57.3649 23.3187 57.3649C19.2255 57.3651 15.2043 56.303 11.6594 54.2856C8.11449 52.2682 5.1708 49.3668 3.12415 45.8724C1.0775 42.3783 0 38.4146 0 34.3798C0 30.345 1.0775 26.3812 3.12415 22.887C5.1708 19.3928 8.11449 16.4912 11.6594 14.4738C15.2043 12.4565 19.2255 11.3944 23.3187 11.3945C27.412 11.3946 31.4332 12.4567 34.978 14.4742H34.9907Z" fill="#314CA3"/>
<path style="mix-blend-mode:multiply" opacity="0.3" d="M23.3223 34.3829H46.6407L35.0103 54.298C31.4574 52.2849 28.506 49.3837 26.4539 45.8872C24.4018 42.3906 23.3216 38.4224 23.3223 34.3829V34.3829Z" fill="url(#paint1_linear_23_1580)"/>
<path style="mix-blend-mode:multiply" opacity="0.3" d="M23.3228 34.4146C23.3213 38.4496 24.3978 42.414 26.4439 45.9088C28.49 49.4036 31.4337 52.3058 34.9788 54.3233C31.436 56.3366 27.4186 57.3962 23.3292 57.3962C19.2399 57.3962 15.2224 56.3366 11.6797 54.3233L23.3228 34.4146Z" fill="url(#paint2_linear_23_1580)"/>
<defs>
<linearGradient id="paint0_linear_23_1580" x1="31.9719" y1="21.1491" x2="44.9515" y2="4.32944" gradientUnits="userSpaceOnUse">
<stop stop-color="#FFCF8E"/>
<stop offset="1" stop-color="#FF8B79"/>
</linearGradient>
<linearGradient id="paint1_linear_23_1580" x1="11.6631" y1="34.3828" x2="11.663" y2="54.298" gradientUnits="userSpaceOnUse">
<stop offset="0.49" stop-color="white"/>
<stop offset="0.54" stop-color="#F3F3F3"/>
<stop offset="0.62" stop-color="#D1D1D1"/>
<stop offset="0.73" stop-color="#9C9C9C"/>
<stop offset="0.87" stop-color="#515151"/>
<stop offset="1"/>
</linearGradient>
<linearGradient id="paint2_linear_23_1580" x1="21.6062" y1="40.4287" x2="33.5593" y2="20.6999" gradientUnits="userSpaceOnUse">
<stop offset="0.49" stop-color="white"/>
<stop offset="0.54" stop-color="#F3F3F3"/>
<stop offset="0.62" stop-color="#D1D1D1"/>
<stop offset="0.73" stop-color="#9C9C9C"/>
<stop offset="0.87" stop-color="#515151"/>
<stop offset="1"/>
</linearGradient>
</defs>
</svg>
