<svg width="20" height="21" viewBox="0 0 20 21" fill="none" xmlns="http://www.w3.org/2000/svg">
<g clip-path="url(#clip0_8_306)">
<path d="M19.3359 19.1493L14.7344 14.3946C15.875 12.9577 16.5625 11.117 16.5625 9.111C16.5625 4.50959 12.9492 0.775986 8.4961 0.775986C4.03907 0.775986 0.429688 4.50959 0.429688 9.111C0.429688 13.7124 4.03907 17.446 8.4961 17.446C10.4375 17.446 12.2149 16.7396 13.6055 15.5611L18.207 20.3118C18.5195 20.6348 19.0235 20.6348 19.3359 20.3118C19.6485 19.993 19.6485 19.4682 19.3359 19.1493ZM8.4961 15.787C4.92969 15.787 2.03125 12.7921 2.03125 9.111C2.03125 5.42987 4.92969 2.43088 8.4961 2.43088C12.0586 2.43088 14.9609 5.42987 14.9609 9.111C14.9609 12.7921 12.0586 15.787 8.4961 15.787Z" fill="#888EA2"/>
</g>
<defs>
<clipPath id="clip0_8_306">
<rect width="20" height="20.666" fill="white" transform="translate(0 0.331989)"/>
</clipPath>
</defs>
</svg>
