<svg width="24" height="27" viewBox="0 0 24 27" fill="none" xmlns="http://www.w3.org/2000/svg">
<g clip-path="url(#clip0_8_287)">
<path d="M19.1849 14.5785C18.7598 14.5785 18.3396 14.649 17.9359 14.7878L12.7314 16.4182V8.08802C12.7314 7.67071 13.0313 7.33121 13.4001 7.33121C13.7688 7.33121 14.0689 7.67071 14.0689 8.08802V13.9754H14.7376C17.3189 13.9754 19.419 11.5988 19.419 8.67773C19.419 6.31391 18.016 4.21658 16.0044 3.57652L7.36631 0.871826V13.8459L3.90026 14.9316C3.49096 15.0476 3.09862 15.2317 2.73396 15.4792C0.704602 16.856 0.0435008 19.8448 1.26031 22.1413C1.74222 23.0508 2.45464 23.7423 3.32056 24.141C3.83676 24.3788 4.39278 24.4994 4.94804 24.4993C5.29281 24.4993 5.63736 24.4528 5.97175 24.359L7.36631 23.9224V25.2331L12.0625 26.7043L20.4258 24.0845L20.4433 24.0787C21.3032 23.7806 22.0755 23.1663 22.618 22.3489C23.1794 21.503 23.4762 20.4953 23.4762 19.4348C23.4762 16.7571 21.5511 14.5785 19.1849 14.5785ZM7.36626 18.0989L3.84925 19.2006L4.20611 20.6594L7.36626 19.6694V22.3519L5.64155 22.8922C5.40462 22.9578 5.16654 22.9896 4.93154 22.9896C3.91238 22.9895 2.95238 22.3915 2.40742 21.3629C1.5699 19.7821 2.02493 17.725 3.42177 16.7772C3.67519 16.6053 3.94751 16.4778 4.23116 16.3982L7.36626 15.4163V18.0989ZM11.3938 8.08802V24.9243L8.70385 24.0816V2.86113L15.645 5.03454C17.0796 5.491 18.0814 6.98919 18.0814 8.67777C18.0814 10.5052 16.9308 12.0341 15.4064 12.3858V8.08802C15.4064 6.8361 14.5064 5.81759 13.4001 5.81759C12.2938 5.81759 11.3938 6.8361 11.3938 8.08802ZM20.0597 22.6286L12.7314 24.9243V22.2418L20.2763 19.8781L19.9195 18.4194L12.7314 20.6712V17.9887L18.3011 16.2439L18.3186 16.2381C18.598 16.1413 18.8894 16.0922 19.185 16.0922C20.8137 16.0922 22.1387 17.5918 22.1387 19.4347C22.1387 20.9107 21.3035 22.193 20.0597 22.6286Z" fill="#1AADB6"/>
</g>
<defs>
<clipPath id="clip0_8_287">
<rect width="22.8273" height="25.8325" fill="white" transform="translate(0.649658 0.871826)"/>
</clipPath>
</defs>
</svg>
