<svg width="25" height="25" viewBox="0 0 25 25" fill="none" xmlns="http://www.w3.org/2000/svg">
<g clip-path="url(#clip0_3_106)">
<path d="M5.20804 22.9166C5.20869 23.469 5.4284 23.9985 5.81896 24.3891C6.20952 24.7796 6.73904 24.9993 7.29137 25H17.708C18.2603 24.9993 18.7899 24.7796 19.1804 24.3891C19.571 23.9985 19.7907 23.469 19.7913 22.9166V22.0052H5.20804V22.9166Z" fill="#888EA2"/>
<path d="M19.7913 2.08333C19.7907 1.531 19.571 1.00148 19.1804 0.610917C18.7899 0.220358 18.2603 0.00065473 17.708 0L7.29137 0C6.73904 0.00065473 6.20952 0.220358 5.81896 0.610917C5.4284 1.00148 5.20869 1.531 5.20804 2.08333V3.125H19.7913V2.08333Z" fill="#888EA2"/>
<path d="M24.7101 6.70052L21.5851 3.44531L20.0823 4.88802L21.3897 6.25H19.792V8.33333H21.5021L20.113 9.66458L21.5544 11.1688L24.6794 8.17396C24.7782 8.07926 24.8574 7.96601 24.9124 7.8407C24.9675 7.71538 24.9972 7.58044 25.0001 7.44361C25.003 7.30677 24.9788 7.17071 24.9291 7.04321C24.8793 6.9157 24.8049 6.79926 24.7101 6.70052Z" fill="#888EA2"/>
<path d="M16.6663 6.25002H19.7913V4.16669H5.20804V16.6667H8.33304V18.75H5.20804V20.8334H19.7913V8.33336H16.6663V6.25002ZM15.6247 10.4167H11.9789C11.8407 10.4167 11.7083 10.4716 11.6106 10.5692C11.5129 10.6669 11.458 10.7994 11.458 10.9375C11.458 11.0757 11.5129 11.2081 11.6106 11.3058C11.7083 11.4035 11.8407 11.4584 11.9789 11.4584H13.0205C13.6663 11.4577 14.2894 11.697 14.7686 12.1299C15.2479 12.5628 15.5492 13.1583 15.6141 13.8008C15.679 14.4434 15.5028 15.0871 15.1199 15.6071C14.7368 16.127 14.1743 16.4861 13.5414 16.6146V17.7084H11.458V16.6667H9.37471V14.5834H13.0205C13.1587 14.5834 13.2911 14.5285 13.3888 14.4308C13.4865 14.3331 13.5414 14.2007 13.5414 14.0625C13.5414 13.9244 13.4865 13.7919 13.3888 13.6942C13.2911 13.5966 13.1587 13.5417 13.0205 13.5417H11.9789C11.3331 13.5423 10.71 13.303 10.2308 12.8701C9.75151 12.4373 9.45018 11.8418 9.38527 11.1992C9.32037 10.5567 9.49653 9.91297 9.87956 9.39301C10.2626 8.87305 10.8251 8.51395 11.458 8.38544V7.29169H13.5414V8.33336H15.6247V10.4167Z" fill="#888EA2"/>
<path d="M3.49831 16.6667L4.88737 15.3354L3.44596 13.8312L0.320962 16.826C0.222146 16.9207 0.14296 17.034 0.0879316 17.1593C0.0329033 17.2846 0.0031108 17.4195 0.000256995 17.5564C-0.00259681 17.6932 0.021544 17.8293 0.0712997 17.9568C0.121056 18.0843 0.195451 18.2007 0.290233 18.2995L3.41523 21.5547L4.9181 20.112L3.61067 18.75H5.20833V16.6667H3.49831Z" fill="#888EA2"/>
</g>
<defs>
<clipPath id="clip0_3_106">
<rect width="25" height="25" fill="white"/>
</clipPath>
</defs>
</svg>
