<svg width="24" height="27" viewBox="0 0 24 27" fill="none" xmlns="http://www.w3.org/2000/svg">
<g clip-path="url(#clip0_8_278)">
<path d="M20.1341 16.8738C18.8909 15.4671 17.4112 14.4256 15.7968 13.7952C17.5259 12.4476 18.6619 10.1921 18.6619 7.64176C18.6619 3.52436 15.7017 0.174561 12.0633 0.174561C8.42491 0.174561 5.4648 3.52436 5.4648 7.64176C5.4648 10.1921 6.60078 12.4476 8.3299 13.7952C6.71549 14.4256 5.23582 15.4671 3.99266 16.8738C1.8369 19.3134 0.649658 22.557 0.649658 26.0071H2.43304C2.43304 19.9978 6.75316 15.1089 12.0633 15.1089C17.3735 15.1089 21.6936 19.9978 21.6936 26.0071H23.477C23.477 22.557 22.2898 19.3134 20.1341 16.8738ZM12.0633 13.0908C9.40827 13.0908 7.24819 10.6464 7.24819 7.64176C7.24819 4.63712 9.40827 2.19272 12.0633 2.19272C14.7184 2.19272 16.8784 4.63712 16.8784 7.64176C16.8784 10.6464 14.7184 13.0908 12.0633 13.0908Z" fill="#1AADB6"/>
</g>
<defs>
<clipPath id="clip0_8_278">
<rect width="22.8273" height="25.8325" fill="white" transform="translate(0.649658 0.174561)"/>
</clipPath>
</defs>
</svg>
