<svg width="25" height="27" viewBox="0 0 25 27" fill="none" xmlns="http://www.w3.org/2000/svg">
<g clip-path="url(#clip0_8_353)">
<path d="M21.3389 17.0494C19.9774 15.6427 18.3569 14.6012 16.5888 13.9708C18.4825 12.6232 19.7266 10.3677 19.7266 7.81736C19.7266 3.69996 16.4847 0.350159 12.5 0.350159C8.51528 0.350159 5.27344 3.69996 5.27344 7.81736C5.27344 10.3677 6.51753 12.6232 8.41123 13.9708C6.64316 14.6012 5.02266 15.6427 3.66118 17.0494C1.30024 19.489 0 22.7326 0 26.1827H1.95312C1.95312 20.1734 6.68442 15.2845 12.5 15.2845C18.3156 15.2845 23.0469 20.1734 23.0469 26.1827H25C25 22.7326 23.6998 19.489 21.3389 17.0494ZM12.5 13.2664C9.59224 13.2664 7.22656 10.822 7.22656 7.81736C7.22656 4.81272 9.59224 2.36832 12.5 2.36832C15.4078 2.36832 17.7734 4.81272 17.7734 7.81736C17.7734 10.822 15.4078 13.2664 12.5 13.2664Z" fill="#314CA3"/>
</g>
<defs>
<clipPath id="clip0_8_353">
<rect width="25" height="25.8325" fill="white" transform="translate(0 0.350159)"/>
</clipPath>
</defs>
</svg>
