<svg width="24" height="27" viewBox="0 0 24 27" fill="none" xmlns="http://www.w3.org/2000/svg">
<path d="M20.1341 17.2684C18.8909 15.8616 17.4112 14.8202 15.7968 14.1897C17.5259 12.8421 18.6619 10.5867 18.6619 8.03629C18.6619 3.91889 15.7017 0.569092 12.0633 0.569092C8.42491 0.569092 5.4648 3.91889 5.4648 8.03629C5.4648 10.5867 6.60078 12.8421 8.3299 14.1897C6.71549 14.8202 5.23582 15.8616 3.99266 17.2684C1.8369 19.708 0.649658 22.9515 0.649658 26.4016H2.43304C2.43304 20.3923 6.75316 15.5035 12.0633 15.5035C17.3735 15.5035 21.6936 20.3923 21.6936 26.4016H23.477C23.477 22.9515 22.2898 19.708 20.1341 17.2684ZM12.0633 13.4853C9.40827 13.4853 7.24819 11.041 7.24819 8.03629C7.24819 5.03165 9.40827 2.58725 12.0633 2.58725C14.7184 2.58725 16.8784 5.03165 16.8784 8.03629C16.8784 11.041 14.7184 13.4853 12.0633 13.4853Z" fill="#1AADB6"/>
</svg>
