<svg width="24" height="26" viewBox="0 0 24 26" fill="none" xmlns="http://www.w3.org/2000/svg">
<path d="M13.0212 25.0041C19.0612 25.0041 23.9999 19.9009 23.9999 13.6597H22.468C22.468 19.0267 18.2152 23.4211 13.0212 23.4211V25.0041ZM23.9999 13.6597C23.9999 7.41857 19.0612 2.31543 13.0212 2.31543V3.89836C18.2152 3.89836 22.468 8.29278 22.468 13.6597H23.9999ZM13.0212 2.31543C6.98116 2.31543 2.04248 7.41857 2.04248 13.6597H3.5744C3.5744 8.29278 7.82721 3.89836 13.0212 3.89836V2.31543ZM2.04248 13.6597C2.04248 19.9009 6.98116 25.0041 13.0212 25.0041V23.4211C7.82721 23.4211 3.5744 19.0267 3.5744 13.6597H2.04248Z" fill="black"/>
<path d="M8.93612 12.8682C8.5131 12.8682 8.17017 13.2226 8.17017 13.6597C8.17017 14.0968 8.5131 14.4512 8.93612 14.4512V12.8682ZM17.1063 14.4512C17.5294 14.4512 17.8723 14.0968 17.8723 13.6597C17.8723 13.2226 17.5294 12.8682 17.1063 12.8682V14.4512ZM8.93612 14.4512H17.1063V12.8682H8.93612V14.4512Z" fill="black"/>
<path d="M12.2554 17.8808C12.2554 18.3179 12.5983 18.6723 13.0213 18.6723C13.4444 18.6723 13.7873 18.3179 13.7873 17.8808H12.2554ZM13.7873 9.43856C13.7873 9.00144 13.4444 8.64709 13.0213 8.64709C12.5983 8.64709 12.2554 9.00144 12.2554 9.43856H13.7873ZM13.7873 17.8808V9.43856H12.2554V17.8808H13.7873Z" fill="black"/>
</svg>
